<svg xmlns="http://www.w3.org/2000/svg" xmlns:xlink="http://www.w3.org/1999/xlink" width="1600" height="70" viewBox="0 0 1600 70">
  <defs>
    <clipPath id="clip-path">
      <path id="Path_35950" data-name="Path 35950" d="M0,0H1600V70H0Z" fill="#fff"/>
    </clipPath>
  </defs>
  <g id="Mask_Group_8613" data-name="Mask Group 8613" clip-path="url(#clip-path)">
    <path id="Path_35949" data-name="Path 35949" d="M4934.5,56.052l-.958-1.66-1328.488,767-40.239-23.233L4850.191,56.052l-.958-1.66L3562.9,797.056l-40.24-23.232L4765.879,56.052l-.958-1.66L3520.745,772.718,3480.5,749.486,4681.569,56.052l-.958-1.66L3478.589,748.38l-40.239-23.233,1158.907-669.1-.959-1.66L3436.434,724.042l-40.24-23.233L4512.946,56.052l-.958-1.66L3394.278,699.7l-40.239-23.232,1074.6-620.419-.958-1.66L3352.122,675.364l-40.24-23.232L4344.325,56.052l-.958-1.66-1033.4,596.634-40.24-23.232L4260.013,56.052l-.958-1.66-991.245,572.3-40.239-23.233,948.13-547.4-.958-1.66L3225.656,602.349l-40.24-23.233L4091.392,56.052l-.958-1.66L3183.5,578.01l-40.24-23.232L4007.08,56.052l-.958-1.66L3141.344,553.671l-40.239-23.232L3922.769,56.052l-.958-1.66L3099.189,529.333l-40.24-23.233L3838.458,56.052l-.958-1.66-780.465,450.6-40.24-23.233,737.353-425.71-.958-1.66-738.31,426.263-40.239-23.232,695.2-401.372-.958-1.66L2972.723,456.317l-40.24-23.232L3585.524,56.052l-.957-1.66-654,377.587-40.24-23.232,610.885-352.7-.958-1.66L2888.412,407.641l-40.239-23.233L3416.9,56.052l-.958-1.66L2846.257,383.3l-40.24-23.232L3332.591,56.052l-.958-1.66L2804.1,358.963l-40.239-23.232L3248.28,56.052l-.958-1.66L2761.945,334.625l-40.239-23.232L3163.97,56.052l-.958-1.66L2719.79,310.286l-40.24-23.233,400.109-231-.959-1.66L2677.634,285.948,2637.4,262.715,2995.347,56.052l-.957-1.66L2635.479,261.609l-40.239-23.232,315.8-182.325-.958-1.66L2593.323,237.27l-40.24-23.232L2826.725,56.052l-.958-1.66-274.6,158.54L2510.928,189.7,2742.414,56.052l-.959-1.66-232.443,134.2-40.239-23.233L2658.1,56.052l-.957-1.66L2466.857,164.254l-40.24-23.232,147.174-84.971-.957-1.66L2424.7,139.916l-40.239-23.232,105.019-60.633-.959-1.66-105.977,61.186-40.239-23.232,62.863-36.295-.958-1.66L2340.391,91.24l-40.24-23.233,20.708-11.955-.958-1.66L2298.234,66.9l-21.667-12.508-.958,1.66,20.708,11.955L2256.079,91.24l-40.24-23.233,20.709-11.955-.959-1.66L2213.923,66.9l-21.666-12.508-.959,1.66,20.708,11.955L2171.768,91.24l-40.239-23.233,20.708-11.955-.959-1.66L2129.613,66.9l-21.667-12.508-.958,1.66L2127.7,68.007l-40.24,23.233-40.239-23.233,20.708-11.955-.958-1.66L2045.3,66.9l-21.667-12.508-.957,1.66,20.708,11.955-40.24,23.233-40.239-23.233,20.708-11.955-.957-1.66L1960.99,66.9l-21.667-12.508-.958,1.66,20.708,11.955L1918.835,91.24,1878.6,68.007,1899.3,56.052l-.958-1.66L1876.678,66.9l-21.665-12.508-.959,1.66,20.708,11.955L1834.523,91.24l-40.239-23.233,20.708-11.955-.959-1.66L1792.368,66.9,1770.7,54.392l-.957,1.66,20.708,11.955-40.24,23.233-40.239-23.233,20.708-11.955-.957-1.66L1708.057,66.9,1686.39,54.392l-.958,1.66,20.708,11.955L1665.9,91.24l-40.24-23.233,20.709-11.955-.959-1.66L1623.745,66.9l-21.667-12.508-.958,1.66,20.708,11.955L1581.59,91.24l-40.24-23.233,20.708-11.955-.957-1.66L1539.434,66.9l-21.665-12.508-.959,1.66,20.708,11.955-40.239,23.232L1457.04,68.007l20.707-11.955-.957-1.66L1455.122,66.9l-21.665-12.508-.958,1.66,20.707,11.955-40.239,23.232-40.239-23.232,20.708-11.955-.959-1.66L1370.812,66.9l-21.667-12.508-.958,1.66L1368.9,68.007l-40.24,23.232-40.239-23.232,20.708-11.955-.959-1.66L1286.5,66.9l-21.665-12.508-.959,1.66,20.708,11.955-40.239,23.232-40.239-23.232,20.706-11.955-.957-1.66L1202.189,66.9l-21.665-12.508-.959,1.66,20.708,11.955-40.239,23.232-63.822-36.846-.957,1.66,62.863,36.293-40.239,23.233L1011.9,54.392l-.958,1.66,105.019,60.633-40.24,23.232L927.591,54.392l-.959,1.66,147.174,84.971-40.239,23.232L843.28,54.392l-.957,1.66,189.329,109.309-40.24,23.232L758.968,54.392l-.957,1.66L989.5,189.7l-40.239,23.233-274.6-158.54-.959,1.66L947.34,214.037,907.1,237.27,590.347,54.392l-.959,1.66,315.8,182.325-40.24,23.232L506.035,54.392l-.958,1.66L863.03,262.715l-40.24,23.232L421.724,54.392l-.957,1.66,400.107,231-40.239,23.233L337.414,54.392l-.959,1.66,442.264,255.34-40.24,23.233L253.1,54.392l-.957,1.66L736.562,335.731l-40.239,23.232L168.791,54.392l-.957,1.66L694.407,360.069,654.169,383.3,84.481,54.392l-.959,1.66,568.73,328.356-40.24,23.232L.169,54.392l-.959,1.66L610.1,408.746l-40.24,23.233-654-377.587-.957,1.66,653.04,377.034L527.7,456.317-168.453,54.392l-.957,1.66,695.2,401.372-40.24,23.232L-252.763,54.392l-.959,1.66,737.352,425.71-40.239,23.232-780.466-450.6-.959,1.66L441.474,506.1l-40.239,23.233L-421.386,54.392l-.958,1.66L399.319,530.438l-40.24,23.233L-505.7,54.392l-.959,1.66,863.82,498.726-40.24,23.232L-590.008,54.392l-.959,1.66L315.008,579.116l-40.24,23.233L-674.319,54.392l-.959,1.66,948.131,547.4-40.24,23.233-991.243-572.3-.957,1.66L230.7,627.794l-40.24,23.232L-842.942,54.392l-.957,1.66L188.541,652.132,148.3,675.364-927.252,54.392l-.959,1.66L146.386,676.47,106.146,699.7l-1117.71-645.31-.957,1.66L104.23,700.808,63.991,724.042-1095.875,54.392l-.957,1.66L62.075,725.147,21.835,748.38-1180.185,54.392l-.959,1.66L19.92,749.486l-40.24,23.232L-1264.5,54.392l-.959,1.66L-22.237,773.824l-40.24,23.232L-1348.808,54.392l-.957,1.66L-64.392,798.163l-40.24,23.233-1328.488-767-.958,1.66L-106.547,822.5l-905.975,523.066.957,1.658,906.932-523.618,40.24,23.232-863.82,498.728.959,1.658L-62.477,847.945l40.241,23.233L-843.9,1345.567l.957,1.658L-20.32,872.284l40.24,23.233-779.508,450.05.957,1.658,780.466-450.6,40.24,23.232-737.353,425.712.959,1.658L63.991,920.962l40.24,23.232-695.2,401.373.959,1.658L106.146,945.3l40.24,23.233-653.042,377.034.959,1.658,654-377.587,40.241,23.233-610.887,352.7.958,1.658L190.458,993.978l40.24,23.232-568.731,328.357.959,1.658,569.688-328.909,40.24,23.232-526.575,304.019.959,1.658,527.531-304.571,40.241,23.232-484.42,279.681.957,1.658,485.378-280.233,40.24,23.233L-85.1,1345.567l.957,1.658L359.079,1091.33l40.24,23.233-400.109,231,.959,1.658L401.236,1115.67l40.24,23.232L83.522,1345.567l.959,1.658,358.91-207.217,40.24,23.232-315.8,182.327.957,1.658,316.755-182.878,40.241,23.233L252.145,1345.567l.957,1.658,274.6-158.54,40.241,23.233L336.455,1345.567l.959,1.658,232.443-134.2,40.24,23.233L420.766,1345.567l.957,1.658,190.288-109.862,40.241,23.232-147.176,84.973.958,1.658L654.169,1261.7l40.24,23.233-105.021,60.633.959,1.658,105.977-61.186,40.24,23.233L673.7,1345.567l.959,1.658,63.82-36.848,40.241,23.233-20.709,11.957.957,1.658,21.667-12.51,21.665,12.51.958-1.658L782.55,1333.61l40.24-23.233,40.24,23.233-20.708,11.957.957,1.658,21.665-12.51,21.667,12.51.957-1.658L866.86,1333.61l40.241-23.233,40.24,23.233-20.709,11.957.959,1.658,21.665-12.51,21.665,12.51.959-1.658-20.709-11.957,40.24-23.233,40.242,23.233-20.709,11.957.958,1.658,21.667-12.51,21.665,12.51.959-1.658-20.709-11.957,40.24-23.233,40.241,23.233-20.709,11.957.957,1.658,21.667-12.51,21.665,12.51.958-1.658-20.708-11.957,40.24-23.233,40.24,23.233-20.709,11.957.959,1.658,21.665-12.51,21.667,12.51.957-1.658L1204.1,1333.61l40.241-23.233,40.24,23.233-20.709,11.957.959,1.658,21.665-12.51,21.665,12.51.959-1.658-20.709-11.957,40.24-23.233,40.241,23.233-20.709,11.957.958,1.658,21.667-12.51,21.665,12.51.959-1.658-20.709-11.957,40.24-23.233,40.241,23.233-20.709,11.957.958,1.658,21.665-12.51,21.667,12.51.957-1.658-20.708-11.957,40.24-23.233,40.24,23.233-20.709,11.957.959,1.658,21.665-12.51,21.667,12.51.957-1.658-20.709-11.957,40.241-23.233,40.24,23.233-20.709,11.957.958,1.658,21.667-12.51,21.667,12.51.959-1.658-20.711-11.957,40.242-23.233,40.24,23.233-20.709,11.957.958,1.658,21.667-12.51,21.667,12.51.957-1.658-20.709-11.957,40.24-23.233,40.241,23.233-20.709,11.957.957,1.658,21.667-12.51,21.665,12.51.959-1.658-20.709-11.957,40.24-23.233,40.24,23.233-20.709,11.957.959,1.658,21.665-12.51,21.667,12.51.958-1.658-20.71-11.957,40.241-23.233,40.24,23.233-20.709,11.957.958,1.658,21.667-12.51,21.667,12.51.957-1.658L1962.9,1333.61l40.24-23.233,40.241,23.233-20.709,11.957.957,1.658,21.667-12.51,21.667,12.51.958-1.658-20.709-11.957,40.24-23.233,40.241,23.233-20.71,11.957.958,1.658,21.667-12.51,21.665,12.51.959-1.658-20.709-11.957,40.24-23.233,40.24,23.233-20.709,11.957.959,1.658,21.666-12.51,21.666,12.51.959-1.658-20.71-11.957,40.242-23.233,40.24,23.233-20.709,11.957.958,1.658,21.667-12.51,21.667,12.51.958-1.658-20.709-11.957,40.241-23.233,40.24,23.233-20.709,11.957.957,1.658,21.667-12.51,21.667,12.51.958-1.658-20.709-11.957,40.24-23.233,40.241,23.233-20.711,11.957.959,1.658,21.667-12.51,21.665,12.51.959-1.658-20.709-11.957,40.24-23.233,40.24,23.233-20.709,11.957.959,1.658,21.666-12.51,21.667,12.51.957-1.658-20.709-11.957,40.241-23.233,40.24,23.233-20.709,11.957.958,1.658,21.667-12.51,21.667,12.51.957-1.658-20.709-11.957,40.24-23.233,40.241,23.233-20.71,11.957.959,1.658,21.667-12.51,21.665,12.51.959-1.658L2721.7,1333.61l40.24-23.233,63.822,36.848.958-1.658-62.865-36.295,40.24-23.233,105.978,61.186.958-1.658-105.021-60.634,40.241-23.233,148.133,85.526.957-1.658-147.176-84.973,40.24-23.233L3078.7,1347.225l.959-1.658-189.332-109.311,40.241-23.233,232.443,134.2.958-1.658-231.487-133.649,40.24-23.233,274.6,158.54.958-1.658L2974.638,1187.58l40.24-23.233,316.756,182.878.958-1.658-315.8-182.327,40.241-23.232,358.91,207.217.958-1.658L3058.949,1138.9l40.24-23.233,401.066,231.556.958-1.658-400.109-231,40.24-23.233,443.223,255.894.957-1.658-442.264-255.341,40.24-23.233,485.376,280.233.958-1.658-484.42-279.681,40.24-23.232,527.532,304.571.958-1.658-526.576-304.019,40.24-23.232L3837.5,1347.225l.958-1.658-568.73-328.357,40.24-23.233,611.844,353.249.958-1.658-610.887-352.7,40.24-23.233,654,377.587.958-1.658L3354.037,968.533l40.24-23.233,696.155,401.925.958-1.658-695.2-401.373,40.24-23.232,738.31,426.263.958-1.658L3438.349,919.855l40.24-23.233,780.467,450.6.958-1.658L3480.5,895.517l40.241-23.233,822.621,474.941.958-1.658L3522.66,871.179l40.24-23.233,864.777,499.279.958-1.658-863.82-498.728,40.24-23.232,906.933,523.618.958-1.658L3606.972,822.5ZM3560.985,798.163l-40.24,23.233L3480.5,798.163l40.241-23.233Zm-2778.435,0,40.24-23.233,40.24,23.233L822.79,821.4ZM820.875,822.5l-40.24,23.233L740.395,822.5l40.24-23.232Zm1772.448-49.783-40.24-23.232,40.24-23.233,40.239,23.233Zm42.155-22.127,40.24,23.233-40.24,23.232-40.24-23.232ZM951.173,749.486l40.24-23.233,40.24,23.233-40.24,23.232ZM989.5,773.824l-40.24,23.232-40.239-23.232,40.239-23.233Zm1435.2-49.783-40.24-23.233,40.24-23.232,40.24,23.232Zm42.156-22.127,40.239,23.232-40.239,23.233-40.24-23.233ZM1119.8,700.808l40.239-23.232,40.24,23.232-40.24,23.233Zm38.324,24.338-40.24,23.233-40.24-23.233,40.24-23.232Zm3.831-48.676,40.24-23.233,40.239,23.233L1202.191,699.7Zm40.24,25.445,40.239,23.232-40.239,23.233-40.24-23.233Zm1.915-1.106,40.24-23.232,40.24,23.232-40.24,23.233Zm42.156-24.338,40.239-23.233,40.24,23.233L1286.5,699.7Zm40.239,25.445,40.24,23.232L1286.5,748.38l-40.239-23.233Zm1.916-1.106,40.24-23.232,40.24,23.232-40.24,23.233Zm42.155-24.338,40.24-23.233,40.24,23.233-40.24,23.232Zm40.24,25.445,40.24,23.232-40.24,23.233-40.24-23.233Zm1.916-1.106,40.239-23.232,40.24,23.232-40.24,23.233Zm42.155-24.338,40.24-23.233,40.24,23.233-40.24,23.232Zm40.24,25.445,40.24,23.232-40.24,23.233-40.24-23.233Zm1.915-1.106,40.24-23.232,40.24,23.232-40.24,23.233ZM1499.2,676.47l40.239-23.233,40.24,23.233-40.24,23.232Zm40.239,25.445,40.24,23.232-40.24,23.233L1499.2,725.147Zm1.916-1.106,40.24-23.232,40.24,23.232-40.24,23.233Zm42.156-24.338,40.239-23.233,40.24,23.233-40.24,23.232Zm40.239,25.445,40.24,23.232-40.24,23.233-40.24-23.233Zm1.916-1.106,40.24-23.232,40.239,23.232L1665.9,724.042Zm42.155-24.338,40.24-23.233,40.24,23.233-40.24,23.232Zm40.24,25.445,40.24,23.232-40.24,23.233-40.24-23.233Zm1.916-1.106,40.239-23.232,40.24,23.232-40.24,23.233Zm42.155-24.338,40.24-23.233,40.239,23.233L1792.368,699.7Zm40.24,25.445,40.24,23.232-40.24,23.233-40.24-23.233Zm1.915-1.106,40.24-23.232,40.24,23.232-40.24,23.233Zm42.156-24.338,40.239-23.233,40.24,23.233-40.24,23.232Zm40.239,25.445,40.24,23.232-40.24,23.233-40.239-23.233Zm1.916-1.106,40.24-23.232,40.24,23.232-40.24,23.233Zm42.155-24.338,40.24-23.233,40.24,23.233L1960.99,699.7Zm40.24,25.445,40.24,23.232-40.24,23.233-40.24-23.233Zm1.916-1.106,40.239-23.232,40.24,23.232-40.24,23.233Zm42.155-24.338,40.24-23.233,40.24,23.233L2045.3,699.7Zm40.24,25.445,40.24,23.232L2045.3,748.38l-40.24-23.233Zm1.916-1.106,40.239-23.232,40.24,23.232-40.24,23.233Zm42.155-24.338,40.24-23.233,40.239,23.233L2129.613,699.7Zm40.24,25.445,40.239,23.232-40.239,23.233-40.24-23.233Zm1.915-1.106,40.24-23.232,40.24,23.232-40.24,23.233Zm42.156-24.338,40.239-23.233,40.24,23.233-40.24,23.232Zm40.239,25.445,40.24,23.232-40.24,23.233-40.24-23.233Zm1.916-1.106,40.24-23.232,40.24,23.232-40.24,23.233Zm42.155-24.338,40.24-23.233,40.24,23.233-40.24,23.232Zm40.24,25.445,40.24,23.232-40.24,23.233-40.24-23.233Zm1.916-1.106,40.24-23.232,40.239,23.232-40.239,23.233Zm82.4,1.106,40.24,23.232-40.24,23.233-40.24-23.233Zm0-2.213-40.24-23.232,40.24-23.233,40.24,23.233Zm-42.155-24.338-40.24-23.232,40.24-23.233,40.239,23.233Zm-42.156-24.338-40.24-23.232,40.24-23.233,40.24,23.233Zm-1.915,1.106-40.24,23.232-40.24-23.232,40.24-23.233Zm-82.4-1.106-40.239-23.232,40.239-23.233,40.24,23.233Zm-1.915,1.106-40.24,23.232-40.24-23.232,40.24-23.233Zm-82.4-1.106-40.24-23.232,40.24-23.233,40.239,23.233Zm-1.916,1.106-40.24,23.232-40.239-23.232,40.239-23.233Zm-82.4-1.106-40.24-23.232,40.24-23.233,40.24,23.233Zm-1.917,1.106-40.24,23.232-40.239-23.232,40.239-23.233Zm-82.4-1.106-40.24-23.232,40.24-23.233,40.24,23.233Zm-1.915,1.106-40.24,23.232-40.24-23.232,40.24-23.233Zm-82.4-1.106-40.239-23.232,40.239-23.233,40.24,23.233Zm-1.915,1.106-40.24,23.232-40.24-23.232,40.24-23.233Zm-82.4-1.106-40.24-23.232,40.24-23.233,40.239,23.233Zm-1.916,1.106-40.24,23.232-40.239-23.232,40.239-23.233Zm-82.4-1.106-40.24-23.232,40.24-23.233,40.24,23.233Zm-1.916,1.106L1665.9,675.364l-40.24-23.232L1665.9,628.9Zm-82.4-1.106-40.239-23.232,40.239-23.233,40.24,23.233Zm-1.915,1.106-40.24,23.232-40.24-23.232,40.24-23.233Zm-82.4-1.106L1499.2,627.794l40.239-23.233,40.24,23.233Zm-1.915,1.106-40.24,23.232-40.24-23.232,40.24-23.233Zm-82.4-1.106-40.24-23.232,40.24-23.233,40.24,23.233Zm-1.916,1.106-40.24,23.232-40.239-23.232,40.239-23.233Zm-82.4-1.106-40.24-23.232,40.24-23.233,40.24,23.233Zm-1.915,1.106-40.24,23.232-40.24-23.232,40.24-23.233Zm-82.4-1.106-40.239-23.232,40.239-23.233,40.24,23.233Zm-1.915,1.106-40.24,23.232-40.24-23.232,40.24-23.233Zm-82.4-1.106-40.24-23.232,40.24-23.233,40.239,23.233Zm-1.916,1.106-40.24,23.232L1119.8,652.132l40.239-23.233ZM1158.12,676.47l-40.24,23.232-40.24-23.232,40.24-23.233Zm-42.156,24.338-40.239,23.233-40.24-23.233,40.24-23.232Zm-42.155,24.338-40.24,23.233-40.24-23.233,40.24-23.232Zm-40.24,25.445,40.24,23.233-40.24,23.232-40.24-23.232Zm1.916-1.105,40.24-23.233,40.239,23.233-40.239,23.232Zm82.4,1.105,40.24,23.233-40.24,23.232-40.24-23.232Zm1.915-1.105,40.24-23.233,40.24,23.233-40.24,23.232Zm82.4,1.105,40.239,23.233-40.239,23.232-40.24-23.232Zm1.915-1.105,40.24-23.233,40.24,23.233-40.24,23.232Zm82.4,1.105,40.24,23.233-40.24,23.232-40.239-23.232Zm1.916-1.105,40.24-23.233,40.24,23.233-40.24,23.232Zm82.4,1.105,40.24,23.233-40.24,23.232-40.24-23.232Zm1.916-1.105,40.239-23.233,40.24,23.233-40.24,23.232Zm82.4,1.105,40.24,23.233-40.24,23.232-40.24-23.232Zm1.915-1.105,40.24-23.233,40.24,23.233-40.24,23.232Zm82.4,1.105,40.24,23.233-40.24,23.232L1499.2,773.824Zm1.916-1.105,40.24-23.233,40.24,23.233-40.24,23.232Zm82.4,1.105,40.24,23.233-40.24,23.232-40.24-23.232Zm1.916-1.105,40.24-23.233,40.24,23.233-40.24,23.232Zm82.4,1.105,40.24,23.233-40.24,23.232-40.24-23.232Zm1.916-1.105,40.239-23.233,40.24,23.233-40.24,23.232Zm82.395,1.105,40.24,23.233-40.24,23.232-40.24-23.232Zm1.915-1.105,40.24-23.233,40.24,23.233-40.24,23.232Zm82.4,1.105,40.24,23.233-40.24,23.232-40.239-23.232Zm1.916-1.105,40.24-23.233,40.24,23.233-40.24,23.232Zm82.4,1.105,40.24,23.233-40.24,23.232-40.24-23.232Zm1.916-1.105,40.239-23.233,40.24,23.233-40.24,23.232Zm82.4,1.105,40.24,23.233-40.24,23.232-40.24-23.232Zm1.915-1.105,40.24-23.233,40.24,23.233-40.24,23.232Zm82.4,1.105,40.239,23.233-40.239,23.232-40.24-23.232Zm1.915-1.105,40.24-23.233,40.24,23.233-40.24,23.232Zm82.4,1.105,40.24,23.233-40.24,23.232-40.24-23.232Zm1.916-1.105,40.24-23.233,40.24,23.233-40.24,23.232Zm82.4,1.105,40.24,23.233-40.24,23.232-40.24-23.232Zm1.916-1.105,40.24-23.233,40.239,23.233-40.239,23.232Zm82.4,1.105,40.24,23.233-40.24,23.232-40.24-23.232Zm1.915-1.105,40.24-23.233,40.24,23.233-40.24,23.232Zm82.4,1.105,40.239,23.233-40.239,23.232-40.24-23.232Zm1.915-1.105,40.24-23.233,40.24,23.233-40.24,23.232Zm82.4,1.105,40.24,23.233-40.24,23.232-40.24-23.232Zm0-2.211-40.24-23.233,40.24-23.232,40.24,23.232Zm-42.155-24.338-40.24-23.233,40.24-23.232,40.24,23.232Zm-42.155-24.34-40.24-23.232,40.24-23.233L2507.1,676.47ZM2424.7,675.364l-40.24-23.232L2424.7,628.9l40.24,23.233Zm-42.155-24.338-40.24-23.232,40.24-23.233,40.24,23.233Zm-42.155-24.338-40.24-23.233,40.24-23.232,40.239,23.232Zm-42.156-24.338-40.24-23.233,40.24-23.232,40.24,23.232Zm-1.916,1.105-40.239,23.233-40.24-23.233,40.24-23.232Zm-82.4-1.105-40.239-23.233,40.239-23.232,40.24,23.232Zm-1.915,1.105-40.24,23.233-40.24-23.233,40.24-23.232Zm-82.4-1.105-40.24-23.233,40.24-23.232,40.239,23.232Zm-1.916,1.105-40.24,23.233-40.239-23.233,40.239-23.232Zm-82.4-1.105-40.24-23.233,40.24-23.232,40.24,23.232Zm-1.917,1.105-40.24,23.233-40.239-23.233,40.239-23.232Zm-82.4-1.105-40.24-23.233,40.24-23.232,40.24,23.232Zm-1.915,1.105-40.24,23.233-40.24-23.233,40.24-23.232Zm-82.4-1.105-40.239-23.233,40.239-23.232,40.24,23.232Zm-1.915,1.105-40.24,23.233-40.24-23.233,40.24-23.232Zm-82.4-1.105-40.24-23.233,40.24-23.232,40.239,23.232Zm-1.916,1.105-40.24,23.233-40.239-23.233,40.239-23.232Zm-82.4-1.105-40.24-23.233,40.24-23.232,40.24,23.232Zm-1.916,1.105L1665.9,626.687l-40.24-23.233,40.24-23.232Zm-82.4-1.105-40.239-23.233,40.239-23.232,40.24,23.232Zm-1.915,1.105-40.24,23.233-40.24-23.233,40.24-23.232Zm-82.4-1.105L1499.2,579.116l40.239-23.232,40.24,23.232Zm-1.915,1.105-40.24,23.233-40.239-23.233,40.239-23.232Zm-82.4-1.105-40.24-23.233,40.24-23.232,40.239,23.232Zm-1.916,1.105-40.24,23.233-40.239-23.233,40.239-23.232Zm-82.4-1.105-40.24-23.233,40.24-23.232,40.24,23.232Zm-1.916,1.105-40.239,23.233-40.24-23.233,40.24-23.232Zm-82.4-1.105-40.239-23.233,40.239-23.232,40.24,23.232Zm-1.915,1.105-40.24,23.233-40.24-23.233,40.24-23.232Zm-82.4-1.105-40.24-23.233,40.24-23.232,40.239,23.232Zm-1.916,1.105-40.24,23.233L1119.8,603.454l40.239-23.232Zm-42.155,24.34-40.24,23.232-40.24-23.232,40.24-23.233Zm-42.156,24.338-40.239,23.232-40.24-23.232,40.24-23.233Zm-42.155,24.338-40.24,23.232L993.329,676.47l40.239-23.233Zm-42.155,24.338-40.24,23.233-40.24-23.233,40.24-23.232ZM989.5,725.147l-40.24,23.233-40.239-23.233,40.239-23.232Zm-42.155,24.34L907.1,772.718l-40.24-23.232,40.24-23.233Zm-42.155,24.338-40.24,23.232-40.24-23.232,40.24-23.233Zm-40.24,25.445,40.24,23.232-40.24,23.233L824.706,822.5Zm1.915-1.106L907.1,774.93l40.24,23.233L907.1,821.4Zm82.4,1.106L989.5,822.5l-40.24,23.233L909.018,822.5Zm1.916-1.106,40.24-23.233,40.24,23.233L991.413,821.4Zm82.4,1.106,40.24,23.232-40.24,23.233L993.328,822.5Zm1.916-1.106,40.24-23.233,40.239,23.233L1075.724,821.4Zm82.4,1.106,40.24,23.232-40.24,23.233-40.24-23.233Zm1.915-1.106,40.24-23.233,40.24,23.233-40.24,23.233Zm82.4,1.106,40.24,23.232-40.24,23.233-40.24-23.233Zm1.915-1.106,40.24-23.233,40.24,23.233-40.24,23.233Zm82.4,1.106,40.24,23.232-40.24,23.233-40.24-23.233Zm1.916-1.106,40.24-23.233,40.24,23.233-40.24,23.233Zm82.4,1.106,40.24,23.232-40.24,23.233-40.24-23.233Zm1.916-1.106,40.239-23.233,40.24,23.233-40.24,23.233Zm82.4,1.106,40.24,23.232-40.24,23.233-40.24-23.233Zm1.915-1.106,40.24-23.233,40.24,23.233-40.24,23.233Zm82.4,1.106,40.24,23.232-40.24,23.233L1499.2,822.5Zm1.916-1.106,40.24-23.233,40.24,23.233L1581.59,821.4Zm82.4,1.106,40.24,23.232-40.24,23.233-40.24-23.233Zm1.916-1.106,40.24-23.233,40.24,23.233L1665.9,821.4Zm82.4,1.106L1748.3,822.5l-40.24,23.233-40.24-23.233Zm1.916-1.106,40.239-23.233,40.24,23.233-40.24,23.233Zm82.395,1.106,40.24,23.232-40.24,23.233-40.24-23.233Zm1.915-1.106,40.24-23.233,40.24,23.233-40.24,23.233Zm82.4,1.106,40.24,23.232-40.24,23.233L1836.44,822.5Zm1.916-1.106,40.24-23.233,40.24,23.233-40.24,23.233Zm82.4,1.106,40.24,23.232-40.24,23.233L1920.75,822.5Zm1.916-1.106,40.239-23.233,40.24,23.233-40.24,23.233Zm82.4,1.106,40.24,23.232-40.24,23.233-40.24-23.233Zm1.915-1.106,40.24-23.233,40.24,23.233-40.24,23.233Zm82.4,1.106,40.24,23.232-40.24,23.233-40.24-23.233Zm1.915-1.106,40.24-23.233,40.24,23.233-40.24,23.233Zm82.4,1.106,40.24,23.232-40.24,23.233-40.24-23.233Zm1.916-1.106,40.24-23.233,40.24,23.233-40.24,23.233Zm82.4,1.106,40.24,23.232-40.24,23.233-40.24-23.233Zm1.916-1.106,40.24-23.233,40.239,23.233L2340.391,821.4Zm82.4,1.106,40.24,23.232-40.24,23.233-40.24-23.233Zm1.915-1.106,40.24-23.233,40.24,23.233L2424.7,821.4Zm82.4,1.106L2507.1,822.5l-40.239,23.233-40.24-23.233Zm1.915-1.106,40.24-23.233,40.24,23.233-40.24,23.233Zm82.4,1.106,40.24,23.232-40.24,23.233-40.24-23.233Zm1.916-1.106,40.24-23.233,40.239,23.233L2593.323,821.4Zm82.4,1.106,40.24,23.232-40.24,23.233-40.24-23.233Zm1.916-1.106,40.239-23.233,40.24,23.233-40.24,23.233Zm82.4,1.106,40.24,23.232-40.24,23.233L2679.55,822.5Zm1.915-1.106,40.24-23.233,40.24,23.233-40.24,23.233Zm-1.915-1.106-40.24-23.232,40.24-23.233,40.239,23.233Zm-42.156-24.338L2637.4,749.486l40.239-23.233,40.24,23.233Zm-42.155-24.338-40.24-23.233,40.24-23.232,40.24,23.232Zm-42.155-24.338-40.24-23.233,40.24-23.232,40.239,23.232Zm-42.156-24.34-40.24-23.232,40.24-23.233,40.24,23.233Zm-42.155-24.338-40.24-23.232,40.24-23.233,40.24,23.233Zm-42.155-24.338-40.24-23.232,40.24-23.233,40.239,23.233ZM2424.7,626.687l-40.239-23.233,40.239-23.232,40.24,23.232Zm-42.155-24.338-40.24-23.233,40.24-23.232,40.239,23.232Zm-42.155-24.34-40.24-23.232,40.24-23.233,40.239,23.233Zm-42.156-24.338-40.24-23.232,40.24-23.233,40.24,23.233Zm-1.916,1.106-40.239,23.232-40.24-23.232,40.24-23.233Zm-82.4-1.106-40.239-23.232,40.239-23.233,40.24,23.233Zm-1.915,1.106-40.24,23.232-40.24-23.232,40.24-23.233Zm-82.4-1.106-40.24-23.232,40.24-23.233,40.239,23.233Zm-1.916,1.106-40.24,23.232-40.239-23.232,40.239-23.233Zm-82.4-1.106-40.24-23.232,40.24-23.233,40.239,23.233Zm-1.917,1.106-40.24,23.232-40.239-23.232,40.239-23.233Zm-82.4-1.106-40.239-23.232,40.239-23.233,40.24,23.233Zm-1.915,1.106-40.24,23.232-40.24-23.232,40.24-23.233Zm-82.4-1.106L1836.44,530.44l40.239-23.233,40.24,23.233Zm-1.915,1.106-40.24,23.232-40.24-23.232,40.24-23.233Zm-82.4-1.106-40.24-23.232,40.24-23.233,40.239,23.233Zm-1.916,1.106-40.24,23.232-40.239-23.232,40.239-23.233Zm-82.4-1.106-40.24-23.232,40.24-23.233,40.24,23.233Zm-1.916,1.106L1665.9,578.01l-40.24-23.232,40.24-23.233Zm-82.4-1.106-40.239-23.232,40.239-23.233,40.24,23.233Zm-1.915,1.106-40.24,23.232-40.24-23.232,40.24-23.233Zm-82.4-1.106L1499.2,530.44l40.239-23.233,40.24,23.233Zm-1.915,1.106-40.24,23.232-40.239-23.232,40.239-23.233Zm-82.4-1.106-40.24-23.232,40.24-23.233,40.239,23.233Zm-1.916,1.106-40.24,23.232-40.239-23.232,40.239-23.233Zm-82.4-1.106-40.239-23.232,40.239-23.233,40.24,23.233Zm-1.916,1.106-40.239,23.232-40.24-23.232,40.24-23.233Zm-82.4-1.106-40.239-23.232,40.239-23.233,40.24,23.233Zm-1.915,1.106-40.24,23.232-40.24-23.232,40.24-23.233Zm-82.4-1.106-40.24-23.232,40.24-23.233,40.239,23.233Zm-1.916,1.106-40.24,23.232L1119.8,554.778l40.239-23.233Zm-42.155,24.338-40.24,23.233-40.24-23.233,40.24-23.232Zm-42.156,24.338-40.239,23.233-40.24-23.233,40.24-23.232Zm-42.155,24.34-40.24,23.232-40.239-23.232,40.239-23.233Zm-42.155,24.338-40.24,23.232-40.24-23.232,40.24-23.233ZM989.5,676.47,949.256,699.7,909.018,676.47l40.239-23.233Zm-42.155,24.338L907.1,724.042l-40.24-23.233,40.24-23.232Zm-42.155,24.338-40.24,23.233-40.24-23.233,40.24-23.232Zm-42.156,24.34-40.24,23.232-40.24-23.232,40.24-23.233Zm-42.155,24.338-40.24,23.232-40.24-23.232,40.24-23.233ZM778.72,798.163,738.48,821.4l-40.24-23.233,40.24-23.233ZM736.564,822.5l-40.24,23.233L656.083,822.5l40.24-23.232Zm1.916,1.106,40.24,23.232-40.241,23.233-40.24-23.233Zm42.155,24.338,40.24,23.233-40.24,23.233-40.24-23.233Zm1.915-1.106,40.24-23.232,40.24,23.232-40.24,23.233Zm82.4,1.106,40.24,23.233-40.24,23.232-40.24-23.232Zm1.915-1.106,40.24-23.232,40.24,23.232L907.1,870.072Zm82.4,1.106,40.24,23.233-40.24,23.232-40.239-23.232Zm1.916-1.106,40.24-23.232,40.24,23.232-40.24,23.233Zm82.4,1.106,40.24,23.233-40.24,23.232-40.24-23.232Zm1.916-1.106,40.24-23.232,40.24,23.232-40.24,23.233Zm82.4,1.106,40.24,23.233-40.24,23.232-40.24-23.232Zm1.915-1.106,40.24-23.232,40.24,23.232-40.24,23.233Zm82.4,1.106,40.24,23.233-40.24,23.232-40.24-23.232Zm1.915-1.106,40.24-23.232,40.24,23.232-40.24,23.233Zm82.4,1.106,40.24,23.233-40.24,23.232-40.24-23.232Zm1.916-1.106,40.24-23.232,40.24,23.232-40.24,23.233Zm82.4,1.106,40.24,23.233-40.24,23.232-40.24-23.232Zm1.916-1.106,40.239-23.232,40.24,23.232-40.24,23.233Zm82.4,1.106,40.24,23.233-40.24,23.232-40.24-23.232Zm1.915-1.106,40.24-23.232,40.24,23.232-40.24,23.233Zm82.4,1.106,40.24,23.233-40.24,23.232L1499.2,871.179Zm1.916-1.106,40.24-23.232,40.24,23.232-40.24,23.233Zm82.4,1.106,40.24,23.233-40.24,23.232-40.24-23.232Zm1.916-1.106,40.24-23.232,40.24,23.232-40.24,23.233Zm82.4,1.106,40.24,23.233-40.24,23.232-40.24-23.232Zm1.915-1.106,40.24-23.232,40.24,23.232-40.24,23.233Zm82.4,1.106,40.24,23.233-40.24,23.232-40.24-23.232Zm1.915-1.106,40.24-23.232,40.24,23.232-40.24,23.233Zm82.4,1.106,40.24,23.233-40.24,23.232-40.239-23.232Zm1.916-1.106,40.24-23.232,40.24,23.232-40.24,23.233Zm82.4,1.106,40.24,23.233-40.24,23.232-40.24-23.232Zm1.916-1.106,40.239-23.232,40.241,23.232-40.241,23.233Zm82.4,1.106,40.24,23.233-40.24,23.232-40.24-23.232Zm1.915-1.106,40.24-23.232,40.24,23.232-40.24,23.233Zm82.4,1.106,40.24,23.233-40.24,23.232-40.24-23.232Zm1.915-1.106,40.24-23.232,40.24,23.232-40.24,23.233Zm82.4,1.106,40.24,23.233-40.24,23.232-40.24-23.232Zm1.916-1.106,40.24-23.232,40.24,23.232-40.24,23.233Zm82.4,1.106,40.24,23.233-40.24,23.232-40.24-23.232Zm1.916-1.106,40.24-23.232,40.239,23.232-40.239,23.233Zm82.4,1.106,40.24,23.233-40.24,23.232-40.24-23.232Zm1.915-1.106,40.24-23.232,40.24,23.232-40.24,23.233Zm82.4,1.106,40.239,23.233-40.239,23.232-40.24-23.232Zm1.915-1.106,40.24-23.232,40.24,23.232-40.24,23.233Zm82.4,1.106,40.24,23.233-40.24,23.232-40.24-23.232Zm1.916-1.106,40.24-23.232,40.24,23.232-40.24,23.233Zm82.4,1.106,40.24,23.233-40.24,23.232-40.24-23.232Zm1.915-1.106,40.24-23.232,40.24,23.232-40.24,23.233Zm82.4,1.106,40.24,23.233-40.24,23.232-40.24-23.232Zm1.915-1.106,40.24-23.232,40.24,23.232-40.24,23.233ZM2763.86,822.5l40.24-23.232,40.24,23.232-40.24,23.233Zm42.156-24.338,40.24-23.233,40.24,23.233-40.24,23.233Zm-1.916-1.106-40.239-23.232,40.239-23.233,40.24,23.233Zm-42.155-24.338-40.24-23.232,40.24-23.233,40.24,23.233ZM2719.79,748.38l-40.24-23.233,40.24-23.232,40.239,23.232Zm-42.156-24.338L2637.4,700.808l40.239-23.232,40.24,23.232Zm-42.155-24.34-40.24-23.232,40.24-23.233,40.24,23.233Zm-42.155-24.338-40.24-23.232,40.24-23.233,40.239,23.233Zm-42.156-24.338-40.24-23.232,40.24-23.233,40.24,23.233Zm-42.155-24.338-40.24-23.233,40.24-23.232,40.24,23.232Zm-42.155-24.338-40.24-23.233,40.24-23.232,40.239,23.232ZM2424.7,578.01l-40.239-23.232,40.239-23.233,40.24,23.233Zm-42.155-24.338-40.24-23.232,40.24-23.233,40.239,23.233Zm-42.155-24.338L2300.15,506.1l40.24-23.232,40.239,23.232Zm-42.156-24.338-40.24-23.233,40.24-23.232,40.24,23.232Zm-1.916,1.105-40.239,23.233-40.24-23.233,40.24-23.232Zm-82.4-1.105-40.239-23.233,40.239-23.232,40.24,23.232Zm-1.915,1.105-40.24,23.233-40.24-23.233,40.24-23.232Zm-82.4-1.105-40.24-23.233,40.24-23.232,40.239,23.232ZM2127.7,506.1l-40.24,23.233L2047.218,506.1l40.239-23.232Zm-82.4-1.105-40.24-23.233,40.24-23.232,40.239,23.232Zm-1.917,1.105-40.24,23.233L1962.906,506.1l40.239-23.232Zm-82.4-1.105-40.239-23.233,40.239-23.232,40.24,23.232Zm-1.916,1.105-40.239,23.233-40.24-23.233,40.24-23.232Zm-82.4-1.105-40.239-23.233,40.239-23.232,40.24,23.232Zm-1.915,1.105-40.24,23.233L1794.284,506.1l40.239-23.232Zm-82.4-1.105-40.24-23.233,40.24-23.232,40.239,23.232Zm-1.916,1.105-40.24,23.233L1709.973,506.1l40.239-23.232Zm-82.4-1.105-40.24-23.233,40.24-23.232,40.24,23.232Zm-1.916,1.105L1665.9,529.333l-40.24-23.233,40.24-23.232Zm-82.4-1.105-40.239-23.233,40.239-23.232,40.24,23.232Zm-1.915,1.105-40.24,23.233L1541.35,506.1l40.24-23.232Zm-82.4-1.105L1499.2,481.762l40.239-23.232,40.24,23.232Zm-1.915,1.105-40.24,23.233L1457.04,506.1l40.239-23.232Zm-82.4-1.105-40.24-23.233,40.24-23.232,40.239,23.232Zm-1.916,1.105-40.24,23.233L1372.729,506.1l40.239-23.232Zm-82.4-1.105-40.239-23.233,40.239-23.232,40.24,23.232ZM1368.9,506.1l-40.239,23.233-40.24-23.233,40.24-23.232Zm-82.4-1.105-40.239-23.233L1286.5,458.53l40.24,23.232Zm-1.915,1.105-40.24,23.233-40.24-23.233,40.24-23.232Zm-82.4-1.105-40.24-23.233,40.24-23.232,40.239,23.232Zm-1.916,1.105-40.24,23.233L1119.8,506.1l40.239-23.232Zm-42.155,24.34-40.24,23.232-40.24-23.232,40.24-23.233Zm-42.156,24.338-40.239,23.232-40.24-23.232,40.24-23.233Zm-42.155,24.338-40.24,23.233-40.239-23.233,40.239-23.232Zm-42.155,24.338-40.24,23.233-40.24-23.233,40.24-23.232ZM989.5,627.794l-40.24,23.232-40.239-23.232,40.239-23.233Zm-42.155,24.338L907.1,675.364l-40.24-23.232L907.1,628.9ZM905.187,676.47,864.946,699.7l-40.24-23.232,40.24-23.233ZM863.03,700.808l-40.24,23.233-40.24-23.233,40.24-23.232Zm-42.155,24.338-40.24,23.233-40.24-23.233,40.24-23.232Zm-42.155,24.34-40.24,23.232-40.24-23.232,40.24-23.233Zm-42.156,24.338-40.24,23.232-40.24-23.232,40.24-23.233Zm-42.155,24.338L654.169,821.4l-40.24-23.233,40.24-23.233ZM652.252,822.5l-40.24,23.233L571.772,822.5l40.24-23.232Zm1.916,1.106,40.24,23.232-40.24,23.233-40.24-23.233Zm42.155,24.338,40.24,23.233-40.24,23.233-40.24-23.233Zm42.155,24.338,40.24,23.233-40.24,23.233-40.24-23.233Zm42.156,24.339,40.24,23.232-40.24,23.233-40.24-23.233Zm1.915-1.106,40.24-23.233,40.24,23.233L822.79,918.75Zm82.4,1.105,40.24,23.233-40.241,23.233-40.24-23.233Zm1.915-1.105,40.24-23.233,40.24,23.233L907.1,918.749Zm82.4,1.105L989.5,919.855l-40.241,23.233-40.24-23.233Zm1.916-1.105,40.24-23.233,40.24,23.233-40.24,23.232Zm82.4,1.105,40.24,23.233-40.24,23.233-40.24-23.233Zm1.916-1.105,40.24-23.233,40.24,23.233-40.24,23.232Zm82.4,1.105,40.24,23.233-40.24,23.233-40.24-23.233Zm1.915-1.105,40.24-23.233,40.24,23.233-40.24,23.232Zm82.4,1.105,40.24,23.233-40.24,23.233-40.24-23.233Zm1.915-1.105,40.24-23.233,40.24,23.233-40.24,23.232Zm82.4,1.105,40.24,23.233-40.24,23.233-40.24-23.233Zm1.916-1.105,40.24-23.233,40.24,23.233-40.24,23.232Zm82.4,1.105,40.24,23.233-40.24,23.233-40.24-23.233Zm1.916-1.105,40.239-23.233,40.24,23.233-40.24,23.232Zm82.4,1.105,40.24,23.233-40.24,23.233-40.24-23.233Zm1.915-1.105,40.24-23.233,40.24,23.233-40.24,23.232Zm82.4,1.105,40.241,23.233-40.241,23.233L1499.2,919.855Zm1.916-1.105,40.24-23.233,40.24,23.233-40.24,23.232Zm82.4,1.105,40.24,23.233-40.24,23.233-40.24-23.233Zm1.916-1.105,40.24-23.233,40.24,23.233-40.24,23.232Zm82.4,1.105,40.24,23.233-40.24,23.233-40.24-23.233Zm1.915-1.105,40.24-23.233,40.24,23.233-40.24,23.232Zm82.4,1.105,40.24,23.233-40.24,23.233-40.24-23.233Zm1.915-1.105,40.24-23.233,40.24,23.233-40.24,23.232Zm82.4,1.105,40.24,23.233-40.24,23.233-40.24-23.233Zm1.916-1.105,40.24-23.233,40.24,23.233-40.24,23.232Zm82.4,1.105,40.24,23.233-40.24,23.233-40.24-23.233Zm1.916-1.105,40.239-23.233,40.241,23.233-40.241,23.232Zm82.4,1.105,40.24,23.233-40.24,23.233-40.24-23.233Zm1.915-1.105,40.24-23.233,40.24,23.233-40.24,23.232Zm82.4,1.105,40.24,23.233-40.24,23.233-40.24-23.233Zm1.915-1.105,40.24-23.233,40.24,23.233-40.24,23.232Zm82.4,1.105,40.24,23.233-40.24,23.233-40.24-23.233Zm1.916-1.105,40.24-23.233,40.24,23.233-40.24,23.232Zm82.4,1.105,40.24,23.233-40.24,23.233-40.24-23.233Zm1.916-1.105,40.24-23.233,40.239,23.233-40.239,23.232Zm82.4,1.105,40.24,23.233-40.24,23.233-40.24-23.233Zm1.915-1.105,40.24-23.233,40.24,23.233-40.24,23.232Zm82.4,1.105,40.24,23.233-40.24,23.233-40.241-23.233Zm1.915-1.105,40.24-23.233,40.24,23.233-40.24,23.232Zm82.4,1.105,40.24,23.233-40.24,23.233-40.24-23.233Zm1.916-1.105,40.24-23.233,40.24,23.233-40.24,23.232Zm82.4,1.105,40.24,23.233-40.24,23.233-40.24-23.233Zm1.915-1.105,40.24-23.233,40.24,23.233-40.24,23.232Zm82.4,1.105,40.24,23.233-40.24,23.233-40.24-23.233Zm1.915-1.105,40.24-23.233,40.24,23.233-40.24,23.232Zm42.155-24.338,40.24-23.233,40.24,23.233-40.24,23.232Zm42.156-24.34,40.24-23.232,40.24,23.232-40.24,23.233Zm42.155-24.338,40.24-23.232,40.24,23.232-40.24,23.233Zm42.156-24.338,40.24-23.233,40.239,23.233L2930.568,821.4Zm-1.916-1.106-40.24-23.232,40.24-23.233,40.24,23.233Zm-42.155-24.338-40.24-23.232,40.24-23.233,40.24,23.233ZM2804.1,748.38l-40.239-23.233,40.239-23.232,40.24,23.232Zm-42.155-24.338-40.24-23.233,40.24-23.232,40.24,23.232ZM2719.79,699.7l-40.24-23.232,40.24-23.233,40.239,23.233Zm-42.156-24.338L2637.4,652.132l40.239-23.233,40.24,23.233Zm-42.155-24.338-40.24-23.232,40.24-23.233,40.24,23.233Zm-42.155-24.338-40.24-23.233,40.24-23.232,40.239,23.232Zm-42.156-24.338-40.239-23.233,40.239-23.232,40.24,23.232Zm-42.155-24.34-40.24-23.232,40.24-23.233,40.24,23.233Zm-42.155-24.338-40.24-23.232,40.24-23.233L2507.1,530.44ZM2424.7,529.333,2384.462,506.1l40.239-23.232,40.24,23.232Zm-42.155-24.338-40.24-23.233,40.24-23.232,40.239,23.232Zm-42.155-24.34-40.24-23.232,40.24-23.232,40.239,23.232Zm-42.156-24.338L2258,433.085l40.239-23.233,40.24,23.233Zm-1.916,1.106-40.239,23.232-40.24-23.232,40.24-23.232Zm-82.4-1.106-40.239-23.232,40.239-23.233,40.24,23.233Zm-1.915,1.106-40.24,23.232-40.24-23.232,40.24-23.232Zm-82.4-1.106-40.24-23.232,40.24-23.233,40.239,23.233Zm-1.916,1.106-40.24,23.232-40.239-23.232,40.239-23.232Zm-82.4-1.106-40.24-23.232,40.24-23.233,40.239,23.233Zm-1.917,1.106-40.24,23.232-40.239-23.232,40.239-23.232Zm-82.4-1.106-40.239-23.232,40.239-23.233,40.24,23.233Zm-1.916,1.106-40.239,23.232-40.24-23.232,40.24-23.232Zm-82.4-1.106-40.239-23.232,40.239-23.233,40.24,23.233Zm-1.915,1.106-40.24,23.232-40.239-23.232,40.239-23.232Zm-82.4-1.106-40.24-23.232,40.24-23.233,40.239,23.233Zm-1.916,1.106-40.24,23.232-40.239-23.232,40.239-23.232Zm-82.4-1.106-40.24-23.232,40.24-23.233,40.239,23.233Zm-1.916,1.106L1665.9,480.655l-40.24-23.232,40.24-23.232Zm-82.4-1.106-40.239-23.232,40.239-23.233,40.24,23.233Zm-1.915,1.106-40.24,23.232-40.24-23.232,40.24-23.232Zm-82.4-1.106L1499.2,433.085l40.239-23.233,40.24,23.233Zm-1.915,1.106-40.24,23.232-40.239-23.232,40.239-23.232Zm-82.4-1.106-40.24-23.232,40.24-23.233,40.239,23.233Zm-1.916,1.106-40.24,23.232-40.239-23.232,40.239-23.232Zm-82.4-1.106-40.239-23.232,40.239-23.233,40.24,23.233Zm-1.916,1.106-40.239,23.232-40.24-23.232,40.24-23.232Zm-82.4-1.106-40.239-23.232,40.239-23.233,40.24,23.233Zm-1.915,1.106-40.24,23.232-40.24-23.232,40.24-23.232Zm-82.4-1.106-40.24-23.232,40.24-23.233,40.239,23.233Zm-1.916,1.106-40.24,23.232L1119.8,457.424l40.239-23.232Zm-42.155,24.338-40.24,23.233-40.24-23.233,40.24-23.232ZM1115.963,506.1l-40.239,23.233-40.24-23.233,40.24-23.232Zm-42.155,24.34-40.24,23.232L993.329,530.44l40.239-23.233Zm-42.155,24.338-40.24,23.232-40.24-23.232,40.24-23.233ZM989.5,579.116l-40.24,23.233-40.239-23.233,40.239-23.232Zm-42.155,24.338L907.1,626.687l-40.24-23.233,40.24-23.232Zm-42.155,24.34-40.24,23.232-40.24-23.232,40.24-23.233ZM863.03,652.132l-40.24,23.232-40.24-23.232L822.79,628.9ZM820.875,676.47,780.635,699.7l-40.24-23.232,40.24-23.233Zm-42.156,24.338L738.48,724.042l-40.24-23.233,40.24-23.232Zm-42.155,24.338-40.24,23.233-40.24-23.233,40.24-23.232Zm-42.155,24.34-40.24,23.232-40.24-23.232,40.24-23.233Zm-42.155,24.338-40.241,23.232-40.24-23.232,40.241-23.233ZM610.1,798.163,569.857,821.4l-40.24-23.233,40.24-23.232ZM567.942,822.5,527.7,845.734,487.462,822.5l40.24-23.232Zm1.915,1.106,40.24,23.232-40.24,23.233-40.24-23.233Zm42.155,24.338,40.24,23.233-40.24,23.233-40.24-23.233Zm42.156,24.338,40.24,23.233-40.24,23.233-40.24-23.233Zm42.155,24.339,40.24,23.232-40.24,23.233-40.24-23.233Zm42.155,24.338,40.24,23.232-40.24,23.233-40.24-23.233ZM780.635,945.3l40.24,23.233-40.24,23.232-40.24-23.232Zm1.915-1.106,40.24-23.232,40.24,23.232-40.24,23.233Zm82.4,1.106,40.241,23.233-40.241,23.232-40.24-23.232Zm1.916-1.106,40.24-23.232,40.24,23.232L907.1,967.427Zm82.4,1.106L989.5,968.533l-40.241,23.232-40.24-23.232Zm1.916-1.106,40.24-23.232,40.24,23.232-40.24,23.233Zm82.4,1.106,40.24,23.233-40.24,23.232-40.24-23.232Zm1.916-1.106,40.24-23.232,40.24,23.232-40.24,23.233Zm82.4,1.106,40.24,23.233-40.24,23.232-40.24-23.232Zm1.915-1.106,40.24-23.232,40.24,23.232-40.24,23.233Zm82.4,1.106,40.24,23.233-40.24,23.232-40.24-23.232Zm1.915-1.106,40.24-23.232,40.24,23.232-40.24,23.233Zm82.4,1.106,40.24,23.233-40.24,23.232-40.24-23.232Zm1.916-1.106,40.24-23.232,40.24,23.232-40.24,23.233Zm82.4,1.106,40.24,23.233-40.24,23.232-40.24-23.232Zm1.915-1.106,40.24-23.232,40.241,23.232-40.241,23.233Zm82.4,1.106,40.24,23.233-40.24,23.232-40.24-23.232Zm1.915-1.106,40.24-23.232,40.24,23.232-40.24,23.233Zm82.4,1.106,40.241,23.233-40.241,23.232L1499.2,968.533Zm1.916-1.106,40.24-23.232,40.24,23.232-40.24,23.233Zm82.4,1.106,40.24,23.233-40.24,23.232-40.24-23.232Zm1.916-1.106,40.24-23.232,40.24,23.232-40.24,23.233Zm82.4,1.106,40.24,23.233-40.24,23.232-40.24-23.232Zm1.915-1.106,40.24-23.232,40.24,23.232-40.24,23.233Zm82.4,1.106,40.24,23.233-40.24,23.232-40.24-23.232Zm1.915-1.106,40.24-23.232,40.24,23.232-40.24,23.233Zm82.4,1.106,40.24,23.233-40.24,23.232-40.24-23.232Zm1.916-1.106,40.24-23.232,40.24,23.232-40.24,23.233Zm82.4,1.106,40.24,23.233-40.24,23.232-40.24-23.232Zm1.916-1.106,40.239-23.232,40.241,23.232-40.241,23.233Zm82.4,1.106,40.24,23.233-40.24,23.232-40.24-23.232Zm1.915-1.106,40.24-23.232,40.24,23.232-40.24,23.233Zm82.4,1.106,40.24,23.233-40.24,23.232-40.24-23.232Zm1.915-1.106,40.24-23.232,40.24,23.232-40.24,23.233Zm82.4,1.106,40.24,23.233-40.24,23.232-40.24-23.232Zm1.916-1.106,40.24-23.232,40.24,23.232-40.24,23.233Zm82.4,1.106,40.24,23.233-40.24,23.232-40.24-23.232Zm1.915-1.106,40.241-23.232,40.239,23.232-40.239,23.233Zm82.4,1.106,40.24,23.233-40.24,23.232-40.24-23.232Zm1.915-1.106,40.24-23.232,40.24,23.232-40.24,23.233Zm82.4,1.106,40.24,23.233-40.24,23.232-40.241-23.232Zm1.915-1.106,40.24-23.232,40.24,23.232-40.24,23.233Zm82.4,1.106,40.24,23.233-40.24,23.232-40.24-23.232Zm1.916-1.106,40.24-23.232,40.24,23.232-40.24,23.233Zm82.4,1.106,40.24,23.233-40.24,23.232-40.24-23.232Zm1.915-1.106,40.24-23.232,40.24,23.232-40.24,23.233Zm82.4,1.106,40.24,23.233-40.24,23.232-40.24-23.232Zm1.915-1.106,40.24-23.232,40.24,23.232-40.24,23.233Zm42.155-24.338,40.24-23.233,40.24,23.233-40.24,23.233Zm42.156-24.338,40.24-23.233,40.24,23.233-40.24,23.232Zm42.155-24.338,40.24-23.233,40.24,23.233-40.24,23.232Zm42.156-24.34,40.24-23.232,40.24,23.232-40.24,23.233Zm42.155-24.338,40.24-23.232,40.24,23.232-40.24,23.233Zm42.155-24.338,40.24-23.233,40.24,23.233-40.24,23.233Zm-1.915-1.106-40.24-23.232,40.24-23.233,40.24,23.233Zm-42.155-24.338-40.24-23.232,40.24-23.233,40.239,23.233Zm-42.156-24.338-40.24-23.233,40.24-23.232,40.24,23.232Zm-42.155-24.338-40.24-23.233,40.24-23.232,40.24,23.232ZM2804.1,699.7l-40.239-23.232,40.239-23.233,40.24,23.233Zm-42.155-24.338-40.24-23.232,40.24-23.233,40.24,23.233Zm-42.155-24.338-40.24-23.232,40.24-23.233,40.239,23.233Zm-42.156-24.338L2637.4,603.454l40.239-23.232,40.24,23.232Zm-42.155-24.338-40.24-23.233,40.24-23.232,40.24,23.232Zm-42.155-24.34-40.24-23.232,40.24-23.233,40.239,23.233Zm-42.156-24.338-40.239-23.232,40.239-23.233,40.24,23.233Zm-42.155-24.338-40.24-23.233,40.24-23.232,40.239,23.232Zm-42.155-24.338-40.24-23.233,40.24-23.232,40.239,23.232Zm-42.156-24.34-40.239-23.232,40.239-23.232,40.24,23.232Zm-42.155-24.338-40.24-23.232,40.24-23.233,40.239,23.233Zm-42.155-24.338-40.24-23.232,40.24-23.233,40.239,23.233Zm-42.156-24.338L2258,384.408l40.239-23.232,40.24,23.232Zm-1.916,1.106-40.239,23.232-40.24-23.232,40.24-23.233Zm-82.4-1.106-40.239-23.233,40.239-23.232,40.24,23.232Zm-1.915,1.106-40.24,23.232-40.239-23.232,40.239-23.233Zm-82.4-1.106-40.24-23.233,40.24-23.232,40.239,23.232Zm-1.916,1.106-40.24,23.232-40.239-23.232,40.239-23.233Zm-82.4-1.106-40.24-23.233,40.24-23.232,40.239,23.232Zm-1.917,1.106-40.24,23.232-40.239-23.232,40.239-23.233Zm-82.4-1.106-40.239-23.233,40.239-23.232,40.24,23.232Zm-1.916,1.106-40.239,23.232-40.24-23.232,40.24-23.233Zm-82.4-1.106-40.239-23.233,40.239-23.232,40.24,23.232Zm-1.915,1.106-40.24,23.232-40.239-23.232,40.239-23.233Zm-82.4-1.106-40.24-23.233,40.24-23.232,40.239,23.232Zm-1.916,1.106-40.24,23.232-40.239-23.232,40.239-23.233Zm-82.4-1.106-40.24-23.233,40.24-23.232,40.239,23.232Zm-1.916,1.106L1665.9,431.979l-40.24-23.232,40.24-23.233Zm-82.4-1.106-40.239-23.233,40.239-23.232,40.24,23.232Zm-1.916,1.106-40.239,23.232-40.24-23.232,40.24-23.233Zm-82.4-1.106L1499.2,384.408l40.239-23.232,40.24,23.232Zm-1.915,1.106-40.24,23.232-40.239-23.232,40.239-23.233Zm-82.4-1.106-40.24-23.233,40.24-23.232,40.239,23.232Zm-1.916,1.106-40.24,23.232-40.239-23.232,40.239-23.233Zm-82.4-1.106-40.239-23.233,40.239-23.232,40.24,23.232Zm-1.916,1.106-40.239,23.232-40.24-23.232,40.24-23.233Zm-82.4-1.106-40.239-23.233,40.239-23.232,40.24,23.232Zm-1.915,1.106-40.24,23.232-40.239-23.232,40.239-23.233Zm-82.4-1.106-40.24-23.233,40.24-23.232,40.239,23.232Zm-1.916,1.106-40.24,23.232L1119.8,408.747l40.239-23.233Zm-42.156,24.338-40.239,23.232-40.239-23.232,40.239-23.233Zm-42.155,24.338-40.239,23.232-40.24-23.232,40.24-23.232Zm-42.155,24.338-40.24,23.233-40.239-23.233,40.239-23.232ZM1031.652,506.1l-40.239,23.233L951.173,506.1l40.24-23.232ZM989.5,530.44l-40.24,23.232L909.018,530.44l40.239-23.233Zm-42.155,24.338L907.1,578.01l-40.24-23.232,40.24-23.233Zm-42.156,24.338-40.239,23.233-40.24-23.233,40.24-23.232ZM863.03,603.454l-40.24,23.233-40.239-23.233,40.239-23.232Zm-42.155,24.34-40.24,23.232-40.24-23.232,40.24-23.233Zm-42.156,24.338L738.48,675.364l-40.24-23.232L738.48,628.9ZM736.564,676.47,696.324,699.7l-40.24-23.232,40.24-23.233Zm-42.155,24.338-40.24,23.233-40.24-23.233,40.24-23.232Zm-42.155,24.338-40.24,23.233-40.24-23.233,40.24-23.232ZM610.1,749.486l-40.24,23.232-40.24-23.232,40.24-23.233Zm-42.155,24.338L527.7,797.056l-40.24-23.232,40.24-23.233Zm-42.156,24.338L485.546,821.4l-40.24-23.233,40.24-23.232ZM483.631,822.5l-40.24,23.233L403.15,822.5l40.24-23.232Zm1.915,1.106,40.24,23.232-40.24,23.233-40.24-23.233ZM527.7,847.945l40.24,23.233L527.7,894.412l-40.24-23.233Zm42.155,24.338,40.24,23.233-40.24,23.233-40.24-23.233Zm42.155,24.339,40.24,23.232-40.24,23.233-40.24-23.233Zm42.156,24.338,40.24,23.232-40.24,23.233-40.24-23.233ZM696.324,945.3l40.24,23.233-40.24,23.232-40.24-23.232Zm42.155,24.338,40.241,23.233L738.479,1016.1l-40.24-23.233Zm42.156,24.34,40.24,23.232-40.24,23.233-40.24-23.233Zm1.915-1.106,40.24-23.233,40.24,23.233L822.79,1016.1Zm82.4,1.106,40.241,23.232-40.241,23.233-40.24-23.233Zm1.916-1.106,40.24-23.233,40.24,23.233L907.1,1016.1Zm82.4,1.106,40.24,23.232-40.24,23.233-40.24-23.233Zm1.916-1.106,40.24-23.233,40.24,23.233-40.24,23.233Zm82.4,1.105,40.24,23.233-40.24,23.233-40.24-23.233Zm1.916-1.105,40.24-23.233,40.24,23.233-40.24,23.233Zm82.4,1.105,40.24,23.233-40.24,23.233-40.24-23.233Zm1.915-1.105,40.24-23.233,40.24,23.233-40.24,23.233Zm82.4,1.105,40.24,23.233-40.24,23.233-40.24-23.233Zm1.915-1.105,40.24-23.233,40.24,23.233-40.24,23.233Zm82.4,1.105,40.24,23.233-40.24,23.233-40.24-23.233Zm1.916-1.105,40.24-23.233,40.24,23.233-40.24,23.233Zm82.4,1.105,40.24,23.233-40.24,23.233-40.24-23.233Zm1.915-1.105,40.24-23.233,40.241,23.233-40.241,23.233Zm82.4,1.105,40.24,23.233-40.24,23.233-40.24-23.233Zm1.915-1.105,40.24-23.233,40.24,23.233-40.24,23.233Zm82.4,1.105,40.241,23.233-40.241,23.233-40.24-23.233Zm1.916-1.105,40.24-23.233,40.24,23.233-40.24,23.233Zm82.4,1.105,40.24,23.233-40.24,23.233-40.24-23.233Zm1.916-1.105,40.24-23.233,40.24,23.233L1665.9,1016.1Zm82.4,1.105,40.24,23.233-40.24,23.233-40.24-23.233Zm1.915-1.105,40.24-23.233,40.24,23.233-40.24,23.233Zm82.4,1.105,40.24,23.233-40.24,23.233-40.24-23.233Zm1.915-1.105,40.24-23.233,40.24,23.233-40.24,23.233Zm82.4,1.105,40.241,23.233-40.241,23.233-40.24-23.233Zm1.916-1.105,40.24-23.233,40.24,23.233-40.24,23.233Zm82.4,1.105,40.24,23.233-40.24,23.233-40.24-23.233Zm1.916-1.105,40.239-23.233,40.241,23.233-40.241,23.233Zm82.4,1.105,40.24,23.233-40.24,23.233-40.24-23.233Zm1.915-1.105,40.24-23.233,40.24,23.233-40.24,23.233Zm82.4,1.105,40.24,23.233-40.24,23.233-40.241-23.233Zm1.915-1.105,40.24-23.233,40.24,23.233-40.24,23.233Zm82.4,1.105,40.24,23.233-40.24,23.233-40.24-23.233Zm1.916-1.105,40.24-23.233,40.24,23.233-40.24,23.233Zm82.4,1.105,40.24,23.233-40.24,23.233-40.24-23.233Zm1.915-1.105,40.241-23.233,40.239,23.233-40.239,23.233Zm82.4,1.105,40.24,23.233-40.24,23.233-40.24-23.233Zm1.915-1.105,40.24-23.233,40.24,23.233L2424.7,1016.1Zm82.4,1.105,40.24,23.233-40.24,23.233-40.241-23.233Zm1.915-1.105,40.24-23.233,40.24,23.233-40.24,23.233Zm82.4,1.105,40.24,23.233-40.24,23.233-40.24-23.233Zm1.916-1.105,40.24-23.233,40.24,23.233-40.24,23.233Zm82.4,1.105,40.24,23.233-40.24,23.233-40.24-23.233Zm1.915-1.105,40.24-23.233,40.24,23.233-40.24,23.233Zm82.4,1.105,40.24,23.233-40.24,23.233-40.24-23.233Zm1.915-1.105,40.24-23.233,40.24,23.233-40.24,23.233Zm42.155-24.338L2804.1,945.3l40.24,23.233-40.24,23.232Zm42.156-24.34,40.24-23.232,40.24,23.232-40.24,23.233Zm42.155-24.338,40.24-23.233,40.24,23.233-40.24,23.233Zm42.156-24.338,40.24-23.233,40.24,23.233-40.24,23.232Zm42.155-24.338,40.24-23.233,40.24,23.233-40.24,23.232Zm42.155-24.34,40.24-23.232,40.24,23.232-40.24,23.233Zm42.156-24.338,40.24-23.232,40.24,23.232-40.24,23.233Zm42.155-24.338,40.24-23.233,40.24,23.233-40.24,23.233Zm-1.915-1.106-40.24-23.232,40.24-23.233,40.24,23.233Zm-42.156-24.338-40.24-23.232,40.24-23.233,40.24,23.233Zm-42.155-24.338-40.24-23.233,40.24-23.232,40.24,23.232Zm-42.155-24.338-40.24-23.233,40.24-23.232,40.239,23.232Zm-42.156-24.34-40.24-23.232,40.24-23.233,40.24,23.233Zm-42.155-24.338-40.24-23.232,40.24-23.233,40.24,23.233ZM2804.1,651.026l-40.239-23.232,40.239-23.233,40.24,23.233Zm-42.155-24.338-40.24-23.233,40.24-23.232,40.24,23.232Zm-42.155-24.338-40.24-23.233,40.24-23.232,40.239,23.232Zm-42.156-24.34L2637.4,554.778l40.239-23.233,40.24,23.233Zm-42.155-24.338-40.24-23.232,40.24-23.233,40.24,23.233Zm-42.155-24.338-40.24-23.233,40.24-23.232,40.239,23.232Zm-42.156-24.338-40.239-23.233,40.239-23.232,40.24,23.232Zm-42.155-24.34-40.24-23.232,40.24-23.232,40.239,23.232Zm-42.155-24.338-40.24-23.232,40.24-23.233,40.239,23.233ZM2424.7,431.979l-40.239-23.232,40.239-23.233,40.24,23.233Zm-42.155-24.338-40.24-23.233,40.24-23.232,40.239,23.232Zm-42.155-24.34-40.24-23.232,40.24-23.232,40.239,23.232Zm-42.156-24.338L2258,335.731l40.239-23.232,40.239,23.232Zm-1.916,1.106L2256.079,383.3l-40.24-23.232,40.24-23.232Zm-82.4-1.106-40.239-23.232,40.239-23.232,40.24,23.232Zm-1.915,1.106-40.24,23.232-40.239-23.232,40.239-23.232Zm-82.4-1.106-40.24-23.232,40.24-23.232,40.239,23.232Zm-1.916,1.106-40.24,23.232-40.239-23.232,40.239-23.232Zm-82.4-1.106-40.24-23.232L2045.3,312.5l40.239,23.232Zm-1.917,1.106-40.24,23.232-40.239-23.232,40.239-23.232Zm-82.4-1.106-40.239-23.232L1960.99,312.5l40.24,23.232Zm-1.916,1.106L1918.835,383.3l-40.24-23.232,40.24-23.232Zm-82.4-1.106-40.239-23.232,40.239-23.232,40.24,23.232Zm-1.915,1.106-40.24,23.232-40.239-23.232,40.239-23.232Zm-82.4-1.106-40.24-23.232,40.24-23.232,40.239,23.232Zm-1.916,1.106-40.24,23.232-40.239-23.232,40.239-23.232Zm-82.4-1.106-40.239-23.232,40.239-23.232,40.239,23.232Zm-1.916,1.106L1665.9,383.3l-40.24-23.232,40.24-23.232Zm-82.4-1.106-40.239-23.232,40.239-23.232,40.24,23.232Zm-1.916,1.106L1581.59,383.3l-40.24-23.232,40.24-23.232Zm-82.4-1.106L1499.2,335.731l40.239-23.232,40.24,23.232Zm-1.915,1.106-40.24,23.232-40.239-23.232,40.239-23.232Zm-82.4-1.106-40.24-23.232,40.24-23.232,40.239,23.232Zm-1.916,1.106-40.24,23.232-40.239-23.232,40.239-23.232Zm-82.4-1.106-40.239-23.232,40.239-23.232,40.24,23.232Zm-1.916,1.106L1328.657,383.3l-40.24-23.232,40.24-23.232Zm-82.4-1.106-40.239-23.232L1286.5,312.5l40.24,23.232Zm-1.915,1.106-40.24,23.232-40.239-23.232,40.239-23.232Zm-82.4-1.106-40.24-23.232,40.24-23.232,40.239,23.232Zm-1.916,1.106-40.24,23.232L1119.8,360.069l40.239-23.232Zm-42.156,24.338-40.239,23.233-40.239-23.233,40.239-23.232Zm-42.155,24.34-40.239,23.232-40.24-23.232,40.24-23.233Zm-42.155,24.338-40.24,23.232-40.239-23.232,40.239-23.233Zm-42.156,24.338-40.239,23.232-40.24-23.232,40.24-23.232ZM989.5,481.762l-40.24,23.233-40.239-23.233,40.239-23.232ZM947.342,506.1,907.1,529.333,866.861,506.1l40.24-23.232Zm-42.156,24.34-40.239,23.232-40.24-23.232,40.24-23.233ZM863.03,554.778,822.79,578.01l-40.239-23.232,40.239-23.233Zm-42.155,24.338-40.24,23.233-40.24-23.233,40.24-23.232Zm-42.156,24.338L738.48,626.687l-40.24-23.233,40.24-23.232Zm-42.155,24.34-40.24,23.232-40.24-23.232,40.24-23.233Zm-42.155,24.338-40.24,23.232-40.24-23.232,40.24-23.233ZM652.252,676.47,612.013,699.7l-40.24-23.232,40.24-23.233ZM610.1,700.808l-40.24,23.233-40.24-23.233,40.24-23.232Zm-42.155,24.338L527.7,748.38l-40.24-23.233,40.24-23.232Zm-42.156,24.34-40.24,23.232-40.24-23.232,40.24-23.233Zm-42.155,24.338-40.24,23.232-40.24-23.232,40.24-23.233Zm-42.155,24.338L401.236,821.4,361,798.163l40.24-23.232ZM399.319,822.5l-40.24,23.233L318.839,822.5l40.24-23.232Zm1.916,1.106,40.24,23.232-40.24,23.233L361,846.839Zm42.155,24.338,40.24,23.233-40.24,23.233-40.24-23.233Zm42.155,24.338,40.24,23.233-40.24,23.233-40.24-23.233ZM527.7,896.623l40.24,23.232L527.7,943.088l-40.24-23.233Zm42.155,24.338,40.24,23.232-40.24,23.233-40.24-23.233ZM612.012,945.3l40.24,23.233-40.24,23.232-40.24-23.232Zm42.156,24.338,40.24,23.233-40.24,23.233-40.24-23.233Zm42.155,24.34,40.24,23.232-40.24,23.233-40.24-23.233Zm42.155,24.338,40.241,23.232-40.241,23.233-40.24-23.233Zm42.156,24.338,40.24,23.232-40.24,23.233-40.24-23.233Zm1.915-1.106,40.24-23.232,40.24,23.232-40.24,23.233Zm82.4,1.106,40.241,23.232-40.241,23.233-40.24-23.233Zm1.916-1.106,40.24-23.232,40.24,23.232-40.24,23.233Zm82.4,1.106,40.24,23.232-40.24,23.233-40.24-23.233Zm1.916-1.106,40.24-23.232,40.24,23.232-40.24,23.233Zm82.4,1.106,40.24,23.232-40.24,23.233-40.24-23.233Zm1.915-1.106,40.241-23.232,40.24,23.232-40.241,23.233Zm82.4,1.106,40.24,23.232-40.24,23.233-40.24-23.233Zm1.915-1.106,40.24-23.232,40.24,23.232-40.24,23.233Zm82.4,1.106,40.24,23.232-40.24,23.233-40.24-23.233Zm1.915-1.106,40.24-23.232,40.24,23.232-40.24,23.233Zm82.4,1.106,40.24,23.232-40.24,23.233-40.24-23.233Zm1.916-1.106,40.24-23.232,40.24,23.232-40.24,23.233Zm82.4,1.106,40.24,23.232-40.24,23.233-40.24-23.233Zm1.915-1.106,40.24-23.232,40.241,23.232-40.241,23.233Zm82.4,1.106,40.24,23.232-40.24,23.233-40.24-23.233Zm1.915-1.106,40.24-23.232,40.24,23.232-40.24,23.233Zm82.4,1.106,40.241,23.232-40.241,23.233-40.24-23.233Zm1.916-1.106,40.24-23.232,40.24,23.232-40.24,23.233Zm82.4,1.106,40.24,23.232-40.24,23.233-40.24-23.233Zm1.916-1.106,40.24-23.232,40.24,23.232-40.24,23.233Zm82.4,1.106,40.24,23.232-40.24,23.233-40.24-23.233Zm1.915-1.106,40.24-23.232,40.241,23.232-40.241,23.233Zm82.4,1.106,40.24,23.232-40.24,23.233-40.24-23.233Zm1.915-1.106,40.24-23.232,40.24,23.232-40.24,23.233Zm82.4,1.106,40.241,23.232-40.241,23.233-40.24-23.233Zm1.916-1.106,40.24-23.232,40.24,23.232-40.24,23.233Zm82.4,1.106,40.24,23.232-40.24,23.233-40.24-23.233Zm1.915-1.106,40.24-23.232,40.241,23.232-40.241,23.233Zm82.4,1.106,40.24,23.232-40.24,23.233-40.24-23.233Zm1.915-1.106,40.24-23.232,40.24,23.232-40.24,23.233Zm82.4,1.106,40.24,23.232-40.24,23.233-40.241-23.233Zm1.915-1.106,40.24-23.232,40.24,23.232-40.24,23.233Zm82.4,1.106,40.24,23.232-40.24,23.233-40.24-23.233Zm1.916-1.106,40.24-23.232,40.24,23.232-40.24,23.233Zm82.4,1.106,40.24,23.232-40.24,23.233-40.24-23.233Zm1.915-1.106,40.241-23.232,40.24,23.232-40.24,23.233Zm82.4,1.106,40.24,23.232-40.24,23.233-40.24-23.233Zm1.915-1.106,40.24-23.232,40.24,23.232-40.24,23.233Zm82.4,1.106,40.24,23.232-40.24,23.233-40.241-23.233Zm1.915-1.106,40.24-23.232,40.24,23.232-40.24,23.233Zm82.4,1.106,40.24,23.232-40.24,23.233-40.24-23.233Zm1.916-1.106,40.24-23.232,40.24,23.232-40.24,23.233Zm82.4,1.106,40.24,23.232-40.24,23.233-40.24-23.233Zm1.915-1.106,40.24-23.232,40.24,23.232-40.24,23.233Zm82.4,1.106,40.24,23.232-40.24,23.233-40.24-23.233Zm1.915-1.106,40.24-23.232,40.24,23.232-40.24,23.233Zm42.155-24.338,40.24-23.233,40.24,23.233-40.24,23.233Zm42.156-24.338,40.24-23.233,40.24,23.233-40.24,23.233Zm42.155-24.338,40.24-23.233,40.24,23.233-40.24,23.232Zm42.155-24.34,40.241-23.232,40.24,23.232-40.24,23.233Zm42.156-24.338,40.24-23.233,40.24,23.233-40.24,23.233Zm42.155-24.338,40.24-23.233,40.24,23.233-40.24,23.232Zm42.156-24.338,40.24-23.233,40.24,23.233-40.24,23.232Zm42.155-24.34,40.24-23.232,40.24,23.232-40.24,23.233ZM3101.1,822.5l40.24-23.232,40.24,23.232-40.24,23.233Zm42.156-24.338,40.24-23.233,40.24,23.233L3183.5,821.4Zm-1.916-1.106-40.239-23.232,40.239-23.233,40.24,23.233Zm-42.155-24.338-40.24-23.232,40.24-23.233,40.24,23.233Zm-42.155-24.338-40.24-23.233,40.24-23.232,40.24,23.232Zm-42.156-24.338-40.24-23.233,40.24-23.232,40.24,23.232Zm-42.155-24.34-40.24-23.232,40.24-23.233,40.24,23.233Zm-42.155-24.338-40.24-23.232,40.24-23.233,40.239,23.233Zm-42.156-24.338-40.24-23.232,40.24-23.233,40.24,23.233Zm-42.155-24.338-40.24-23.233,40.24-23.232,40.24,23.232ZM2804.1,602.349l-40.239-23.233,40.239-23.232,40.24,23.232Zm-42.155-24.34-40.24-23.232,40.24-23.233,40.24,23.233Zm-42.155-24.338-40.24-23.232,40.24-23.233,40.239,23.233Zm-42.156-24.338L2637.4,506.1l40.239-23.232,40.24,23.232Zm-42.155-24.338-40.24-23.233,40.24-23.232,40.24,23.232Zm-42.155-24.34-40.24-23.232,40.24-23.232,40.239,23.232Zm-42.156-24.338-40.239-23.232,40.239-23.233,40.24,23.233Zm-42.155-24.338-40.24-23.232,40.24-23.233,40.239,23.233Zm-42.155-24.338-40.24-23.233,40.24-23.232,40.239,23.232ZM2424.7,383.3l-40.239-23.232,40.239-23.232,40.24,23.232Zm-42.155-24.338-40.24-23.232,40.24-23.232,40.239,23.232Zm-42.155-24.338-40.24-23.232,40.24-23.233,40.239,23.233Zm-42.156-24.338L2258,287.053l40.239-23.232,40.239,23.232Zm-1.916,1.106-40.239,23.232-40.24-23.232,40.24-23.233Zm-82.4-1.106-40.239-23.233,40.239-23.232,40.24,23.232Zm-1.917,1.106-40.239,23.232-40.239-23.232,40.239-23.233Zm-82.394-1.106-40.24-23.233,40.24-23.232,40.239,23.232Zm-1.916,1.106-40.24,23.232-40.239-23.232,40.239-23.233Zm-82.4-1.106-40.24-23.233,40.24-23.232,40.239,23.232Zm-1.917,1.106-40.24,23.232-40.239-23.232,40.239-23.233Zm-82.4-1.106-40.239-23.233,40.239-23.232,40.24,23.232Zm-1.916,1.106-40.239,23.232-40.24-23.232,40.24-23.233Zm-82.4-1.106-40.239-23.233,40.239-23.232,40.24,23.232Zm-1.915,1.106-40.24,23.232-40.239-23.232,40.239-23.233Zm-82.4-1.106-40.24-23.233,40.24-23.232,40.239,23.232Zm-1.916,1.106-40.24,23.232-40.239-23.232,40.239-23.233Zm-82.4-1.106-40.239-23.233,40.239-23.232,40.239,23.232Zm-1.916,1.106L1665.9,334.625l-40.24-23.232,40.24-23.233Zm-82.4-1.106-40.239-23.233,40.239-23.232,40.24,23.232Zm-1.916,1.106-40.239,23.232-40.239-23.232,40.239-23.233Zm-82.4-1.106L1499.2,287.053l40.239-23.232,40.24,23.232Zm-1.915,1.106-40.24,23.232-40.239-23.232,40.239-23.233Zm-82.4-1.106-40.24-23.233,40.24-23.232,40.239,23.232Zm-1.916,1.106-40.24,23.232-40.239-23.232,40.239-23.233Zm-82.4-1.106-40.239-23.233,40.239-23.232,40.24,23.232Zm-1.916,1.106-40.239,23.232-40.24-23.232,40.24-23.233Zm-82.4-1.106-40.239-23.233,40.239-23.232,40.24,23.232Zm-1.916,1.106-40.239,23.232-40.239-23.232,40.239-23.233Zm-82.394-1.106-40.24-23.233,40.239-23.232,40.24,23.232Zm-1.916,1.106-40.24,23.232L1119.8,311.392l40.239-23.232Zm-42.156,24.338-40.239,23.232-40.24-23.232,40.24-23.233Zm-42.155,24.338L1075.724,383.3l-40.24-23.232,40.239-23.232Zm-42.155,24.338-40.24,23.233-40.239-23.233,40.239-23.232Zm-42.156,24.34-40.239,23.232-40.24-23.233,40.24-23.232ZM989.5,433.085l-40.24,23.232-40.239-23.232,40.239-23.233Zm-42.155,24.338L907.1,480.655l-40.24-23.232,40.24-23.232Zm-42.156,24.338-40.239,23.233-40.24-23.233,40.239-23.232ZM863.03,506.1l-40.24,23.233L782.55,506.1l40.24-23.232Zm-42.155,24.34-40.24,23.232-40.24-23.233,40.24-23.232Zm-42.156,24.338L738.48,578.01l-40.24-23.232,40.239-23.233Zm-42.155,24.338-40.24,23.233-40.24-23.233,40.24-23.233Zm-42.155,24.338-40.24,23.233-40.24-23.233,40.24-23.232Zm-42.156,24.34-40.239,23.232-40.24-23.233,40.239-23.232ZM610.1,652.132l-40.24,23.232-40.24-23.232,40.24-23.233ZM567.942,676.47,527.7,699.7l-40.24-23.232,40.24-23.233Zm-42.156,24.338-40.24,23.233-40.24-23.233,40.24-23.232Zm-42.155,24.338-40.24,23.233-40.24-23.233,40.24-23.232Zm-42.155,24.34-40.24,23.232-40.241-23.232,40.24-23.233Zm-42.156,24.338-40.24,23.232-40.24-23.232,40.24-23.233Zm-42.155,24.338L316.924,821.4l-40.24-23.233,40.24-23.233ZM315.008,822.5l-40.24,23.233L234.528,822.5l40.24-23.232Zm1.916,1.106,40.24,23.232-40.24,23.233-40.24-23.233Zm42.155,24.338,40.24,23.233-40.24,23.233-40.24-23.233Zm42.156,24.338,40.24,23.233-40.24,23.233-40.241-23.233Zm42.155,24.339,40.24,23.232-40.24,23.233-40.24-23.233Zm42.155,24.338,40.24,23.232-40.24,23.233-40.24-23.233ZM527.7,945.3l40.24,23.233L527.7,991.765l-40.24-23.232Zm42.155,24.338,40.24,23.233-40.24,23.233-40.24-23.233Zm42.155,24.34,40.241,23.232-40.241,23.233-40.24-23.233Zm42.156,24.338,40.24,23.232-40.24,23.233-40.241-23.233Zm42.155,24.338,40.24,23.232-40.24,23.233-40.24-23.233Zm42.155,24.338,40.241,23.233-40.241,23.233-40.24-23.233Zm42.156,24.338,40.24,23.233-40.24,23.233-40.24-23.233Zm1.915-1.105,40.24-23.233,40.24,23.233-40.24,23.233Zm82.4,1.105,40.241,23.233L864.945,1137.8l-40.24-23.233Zm1.916-1.105,40.24-23.233,40.24,23.233-40.24,23.233Zm82.4,1.105,40.24,23.233-40.24,23.233-40.24-23.233Zm1.915-1.105,40.241-23.233,40.24,23.233-40.24,23.233Zm82.4,1.105,40.24,23.233-40.24,23.233-40.24-23.233Zm1.915-1.105,40.24-23.233,40.24,23.233-40.24,23.233Zm82.4,1.105,40.24,23.233-40.24,23.233-40.241-23.233Zm1.915-1.105,40.24-23.233,40.24,23.233-40.24,23.233Zm82.4,1.105,40.24,23.233-40.242,23.233-40.24-23.233Zm1.915-1.105,40.24-23.233,40.24,23.233-40.24,23.232Zm82.4,1.105,40.242,23.233L1286.5,1137.8l-40.24-23.233Zm1.916-1.105,40.24-23.233,40.24,23.233-40.24,23.232Zm82.4,1.105,40.24,23.233-40.24,23.233-40.24-23.233Zm1.915-1.105,40.24-23.233,40.241,23.233-40.241,23.232Zm82.4,1.105,40.24,23.233-40.24,23.233-40.24-23.233Zm1.915-1.105,40.24-23.233,40.24,23.233-40.24,23.232Zm82.4,1.105,40.241,23.233-40.241,23.233-40.24-23.233Zm1.916-1.105,40.24-23.233,40.24,23.233-40.24,23.232Zm82.4,1.105,40.24,23.233-40.24,23.233-40.24-23.233Zm1.916-1.105,40.24-23.233,40.24,23.233-40.24,23.232Zm82.4,1.105,40.24,23.233-40.24,23.233-40.24-23.233Zm1.915-1.105,40.24-23.233,40.241,23.233-40.241,23.232Zm82.4,1.105,40.24,23.233-40.24,23.233-40.24-23.233Zm1.915-1.105,40.24-23.233,40.24,23.233-40.24,23.232Zm82.4,1.105,40.241,23.233-40.241,23.233-40.24-23.233Zm1.916-1.105,40.24-23.233,40.24,23.233-40.24,23.232Zm82.4,1.105,40.24,23.233-40.24,23.233-40.24-23.233Zm1.915-1.105,40.24-23.233,40.241,23.233-40.241,23.232Zm82.4,1.105,40.24,23.233L2045.3,1137.8l-40.24-23.233Zm1.915-1.105,40.24-23.233,40.24,23.233-40.24,23.232Zm82.4,1.105,40.24,23.233-40.24,23.233-40.241-23.233Zm1.915-1.105,40.24-23.233,40.24,23.233-40.24,23.232Zm82.4,1.105,40.241,23.233-40.241,23.233-40.24-23.233Zm1.916-1.105,40.24-23.233,40.24,23.233-40.24,23.232Zm82.4,1.105,40.24,23.233-40.24,23.233-40.24-23.233Zm1.915-1.105,40.241-23.233,40.24,23.233-40.24,23.232Zm82.4,1.105,40.24,23.233-40.24,23.233-40.24-23.233Zm1.915-1.105,40.24-23.233,40.24,23.233-40.24,23.232Zm82.4,1.105,40.24,23.233-40.24,23.233-40.241-23.233Zm1.915-1.105,40.24-23.233,40.24,23.233-40.24,23.232Zm82.4,1.105,40.24,23.233-40.24,23.233-40.24-23.233Zm1.916-1.105,40.24-23.233,40.24,23.233-40.24,23.232Zm82.4,1.105,40.24,23.233-40.24,23.233-40.24-23.233Zm1.915-1.105,40.24-23.233,40.24,23.233-40.24,23.232Zm82.4,1.105,40.24,23.233-40.24,23.233-40.241-23.233Zm1.915-1.105,40.24-23.233,40.24,23.233-40.24,23.232Zm42.155-24.339,40.24-23.232,40.24,23.232-40.24,23.233Zm42.156-24.338,40.24-23.232,40.24,23.232-40.24,23.233Zm42.155-24.338,40.24-23.233,40.24,23.233-40.24,23.233Zm42.155-24.338,40.241-23.233,40.24,23.233-40.24,23.233Zm42.156-24.338,40.24-23.233,40.24,23.233-40.24,23.232Zm42.155-24.34,40.24-23.232,40.24,23.232-40.24,23.233Zm42.155-24.338,40.241-23.233,40.24,23.233-40.24,23.233Zm42.156-24.338,40.24-23.233,40.24,23.233-40.24,23.232Zm42.155-24.338,40.24-23.233,40.24,23.233-40.24,23.232Zm42.156-24.34,40.24-23.232,40.24,23.232-40.24,23.233Zm42.155-24.338,40.24-23.232L3265.9,822.5l-40.24,23.233Zm42.156-24.338,40.239-23.233,40.24,23.233-40.24,23.233Zm-1.916-1.106-40.24-23.232,40.24-23.233,40.24,23.233ZM3183.5,772.718l-40.24-23.232,40.24-23.233,40.24,23.233Zm-42.156-24.338-40.239-23.233,40.239-23.232,40.24,23.232Zm-42.155-24.338-40.24-23.233,40.24-23.232,40.24,23.232Zm-42.155-24.34-40.24-23.232,40.24-23.233,40.24,23.233Zm-42.156-24.338-40.24-23.232,40.24-23.233,40.24,23.233Zm-42.155-24.338-40.24-23.232,40.24-23.233,40.24,23.233Zm-42.155-24.338-40.24-23.233,40.24-23.232,40.239,23.232Zm-42.156-24.338-40.24-23.233,40.24-23.232,40.24,23.232Zm-42.155-24.34-40.24-23.232,40.24-23.233,40.24,23.233ZM2804.1,553.671l-40.239-23.232,40.239-23.233,40.24,23.233Zm-42.155-24.338L2721.7,506.1l40.24-23.232,40.24,23.232Zm-42.155-24.338-40.24-23.233,40.24-23.232,40.239,23.232Zm-42.156-24.34L2637.4,457.424l40.239-23.232,40.24,23.232Zm-42.155-24.338-40.24-23.232,40.24-23.233,40.239,23.233Zm-42.155-24.338-40.24-23.232,40.24-23.233,40.239,23.233Zm-42.156-24.338-40.239-23.233,40.239-23.232,40.24,23.232Zm-42.155-24.34-40.24-23.232,40.24-23.232,40.239,23.232Zm-42.155-24.338-40.24-23.232,40.24-23.232,40.239,23.232ZM2424.7,334.625l-40.239-23.232L2424.7,288.16l40.24,23.233Zm-42.155-24.338-40.24-23.233,40.24-23.232,40.239,23.232Zm-42.155-24.338-40.24-23.233,40.24-23.232,40.239,23.232Zm-42.156-24.34L2258,238.377l40.239-23.232,40.239,23.232Zm-1.916,1.106-40.239,23.233-40.24-23.233,40.24-23.232Zm-82.4-1.106-40.239-23.232,40.239-23.232,40.24,23.232Zm-1.917,1.106-40.239,23.233-40.239-23.233,40.239-23.232Zm-82.394-1.106-40.24-23.232,40.24-23.232,40.239,23.232Zm-1.916,1.106-40.24,23.233-40.239-23.233,40.239-23.232Zm-82.4-1.106-40.239-23.232,40.239-23.232,40.239,23.232Zm-1.917,1.106-40.24,23.233-40.239-23.233,40.239-23.232Zm-82.4-1.106-40.239-23.232,40.239-23.232,40.239,23.232Zm-1.916,1.106-40.239,23.233-40.24-23.233,40.24-23.232Zm-82.4-1.106-40.239-23.232,40.239-23.232,40.24,23.232Zm-1.915,1.106-40.24,23.233-40.239-23.233,40.239-23.232Zm-82.4-1.106-40.24-23.232,40.24-23.232,40.239,23.232Zm-1.916,1.106-40.24,23.233-40.239-23.233,40.239-23.232Zm-82.4-1.106-40.239-23.232,40.239-23.232,40.239,23.232Zm-1.916,1.106L1665.9,285.948l-40.24-23.233,40.24-23.232Zm-82.4-1.106-40.239-23.232,40.239-23.232,40.24,23.232Zm-1.916,1.106-40.239,23.233-40.239-23.233,40.239-23.232Zm-82.4-1.106L1499.2,238.377l40.239-23.232,40.24,23.232Zm-1.915,1.106-40.24,23.233-40.239-23.233,40.239-23.232Zm-82.4-1.106-40.24-23.232,40.24-23.232,40.239,23.232Zm-1.916,1.106-40.24,23.233-40.239-23.233,40.239-23.232Zm-82.4-1.106-40.239-23.232,40.239-23.232,40.239,23.232Zm-1.916,1.106-40.239,23.233-40.24-23.233,40.24-23.232Zm-82.4-1.106-40.239-23.232,40.239-23.232,40.24,23.232Zm-1.916,1.106-40.239,23.233-40.24-23.233,40.24-23.232Zm-82.4-1.106-40.239-23.232,40.239-23.232,40.24,23.232Zm-1.916,1.106-40.239,23.232L1119.8,262.715l40.239-23.232Zm-42.155,24.338-40.239,23.233-40.24-23.233,40.24-23.232Zm-42.155,24.338-40.24,23.233-40.239-23.233,40.239-23.232Zm-42.156,24.34-40.239,23.232-40.239-23.232,40.239-23.233Zm-42.155,24.338L991.413,383.3l-40.24-23.232,40.24-23.232ZM989.5,384.408l-40.24,23.232-40.239-23.232,40.239-23.232ZM947.34,408.746,907.1,431.979l-40.24-23.233,40.24-23.232Zm-42.155,24.34-40.24,23.232-40.239-23.232,40.239-23.233ZM863.03,457.424l-40.24,23.232-40.24-23.232,40.24-23.232Zm-42.156,24.338-40.239,23.232-40.24-23.232,40.24-23.232ZM778.719,506.1l-40.24,23.233L698.24,506.1l40.239-23.232Zm-42.155,24.338-40.24,23.233-40.24-23.233,40.24-23.232Zm-42.156,24.34L654.169,578.01l-40.24-23.232,40.24-23.233Zm-42.155,24.338-40.24,23.232-40.239-23.232,40.239-23.233ZM610.1,603.454l-40.24,23.233-40.24-23.233,40.24-23.232Zm-42.156,24.338L527.7,651.026l-40.24-23.233,40.24-23.232Zm-42.155,24.34-40.24,23.232-40.24-23.232,40.24-23.233ZM483.631,676.47,443.391,699.7,403.15,676.47l40.24-23.233Zm-42.156,24.338-40.24,23.233L361,700.808l40.239-23.232Zm-42.155,24.338-40.24,23.233-40.24-23.233,40.24-23.232Zm-42.155,24.34-40.24,23.232-40.24-23.232,40.24-23.233Zm-42.156,24.338-40.24,23.232-40.24-23.232,40.24-23.233Zm-42.155,24.338L232.613,821.4l-40.24-23.233,40.24-23.233ZM230.7,822.5l-40.24,23.233L150.218,822.5l40.24-23.232Zm1.915,1.106,40.24,23.232-40.24,23.233-40.24-23.233Zm42.155,24.338,40.241,23.233-40.241,23.233-40.24-23.233Zm42.156,24.338,40.24,23.233-40.24,23.233-40.24-23.233Zm42.155,24.339,40.24,23.232-40.24,23.233-40.24-23.233Zm42.156,24.338,40.24,23.232-40.24,23.233-40.241-23.233ZM443.391,945.3l40.24,23.233-40.24,23.232-40.24-23.232Zm42.155,24.338,40.24,23.233-40.24,23.233-40.24-23.233Zm42.156,24.34,40.24,23.232-40.24,23.233-40.241-23.233Zm42.155,24.338,40.24,23.232-40.24,23.233-40.24-23.233Zm42.155,24.338,40.241,23.232-40.241,23.233-40.24-23.233Zm42.156,24.338,40.24,23.233-40.24,23.233-40.241-23.233Zm42.155,24.338,40.24,23.233-40.24,23.233-40.24-23.233Zm42.155,24.34L778.72,1138.9l-40.241,23.233-40.24-23.233Zm42.156,24.338,40.24,23.232-40.24,23.233-40.24-23.233Zm1.915-1.106,40.24-23.232,40.24,23.232-40.24,23.233Zm82.4,1.106,40.241,23.232-40.241,23.233-40.24-23.233Zm1.916-1.106,40.24-23.232,40.24,23.232-40.24,23.233Zm82.4,1.106,40.24,23.232-40.24,23.233-40.24-23.233Zm1.915-1.106,40.241-23.232,40.24,23.232-40.24,23.233Zm82.4,1.106,40.24,23.232-40.24,23.233-40.24-23.233Zm1.915-1.106,40.24-23.232,40.241,23.232-40.241,23.233Zm82.4,1.106,40.24,23.232-40.24,23.233-40.241-23.233Zm1.915-1.106,40.24-23.232,40.24,23.232-40.24,23.233Zm82.4,1.106,40.242,23.232-40.242,23.233-40.24-23.233Zm1.916-1.106,40.24-23.233,40.24,23.233-40.24,23.233Zm82.4,1.106,40.242,23.232-40.242,23.233-40.24-23.233Zm1.916-1.106,40.24-23.233,40.24,23.233-40.24,23.233Zm82.4,1.106,40.24,23.232-40.24,23.233-40.24-23.233Zm1.915-1.106,40.24-23.233,40.241,23.233-40.241,23.233Zm82.4,1.106,40.24,23.232-40.24,23.233-40.24-23.233Zm1.915-1.106,40.24-23.233,40.24,23.233-40.24,23.233Zm82.4,1.106,40.241,23.232-40.241,23.233-40.24-23.233Zm1.916-1.106,40.24-23.233,40.24,23.233-40.24,23.233Zm82.4,1.106,40.24,23.232-40.24,23.233-40.24-23.233Zm1.915-1.106,40.242-23.233,40.24,23.233-40.24,23.233Zm82.4,1.106,40.24,23.232-40.24,23.233-40.24-23.233Zm1.915-1.106,40.24-23.233,40.241,23.233-40.241,23.233Zm82.4,1.106,40.24,23.232-40.24,23.233-40.24-23.233Zm1.915-1.106,40.24-23.233,40.24,23.233-40.24,23.233Zm82.4,1.106,40.241,23.232-40.241,23.233-40.24-23.233Zm1.916-1.106,40.24-23.233,40.24,23.233-40.24,23.233Zm82.4,1.106,40.24,23.232-40.24,23.233-40.24-23.233Zm1.915-1.106,40.24-23.233,40.241,23.233-40.241,23.233Zm82.4,1.106,40.24,23.232-40.24,23.233-40.24-23.233Zm1.915-1.106,40.24-23.233,40.24,23.233-40.24,23.233Zm82.4,1.106,40.24,23.232-40.24,23.233-40.241-23.233Zm1.915-1.106,40.24-23.233,40.24,23.233-40.24,23.233Zm82.4,1.106,40.241,23.232-40.241,23.233-40.24-23.233Zm1.916-1.106,40.24-23.233,40.24,23.233-40.24,23.233Zm82.4,1.106,40.24,23.232-40.24,23.233-40.24-23.233Zm1.915-1.106,40.241-23.233,40.24,23.233-40.24,23.233Zm82.4,1.106,40.24,23.232-40.24,23.233-40.24-23.233Zm1.915-1.106,40.24-23.233,40.24,23.233-40.24,23.233Zm82.4,1.106,40.24,23.232-40.24,23.233-40.241-23.233Zm1.915-1.106,40.24-23.233,40.24,23.233-40.24,23.233Zm82.4,1.106,40.24,23.232-40.24,23.233-40.24-23.233Zm1.915-1.106,40.241-23.233,40.24,23.233-40.24,23.233Zm82.4,1.106,40.24,23.232-40.24,23.233-40.24-23.233Zm1.915-1.106,40.24-23.233,40.241,23.233-40.241,23.233Zm82.4,1.106,40.24,23.232-40.24,23.233-40.241-23.233Zm1.915-1.106,40.24-23.233,40.24,23.233-40.24,23.233Zm42.155-24.338,40.24-23.233,40.24,23.233L2804.1,1137.8Zm42.156-24.338,40.24-23.233,40.24,23.233-40.24,23.232Zm42.155-24.339,40.24-23.232,40.24,23.232-40.24,23.233Zm42.155-24.338,40.241-23.232,40.24,23.232-40.24,23.233Zm42.156-24.338,40.24-23.233,40.24,23.233-40.24,23.233Zm42.155-24.338,40.24-23.233,40.24,23.233-40.24,23.233Zm42.155-24.338,40.241-23.233,40.24,23.233-40.24,23.232Zm42.156-24.34,40.24-23.232,40.24,23.232-40.24,23.233Zm42.155-24.338,40.24-23.233,40.24,23.233-40.24,23.233Zm42.156-24.338,40.24-23.233,40.24,23.233-40.24,23.232Zm42.155-24.338,40.24-23.233,40.24,23.233-40.24,23.232Zm42.155-24.34,40.24-23.232,40.24,23.232-40.24,23.233Zm42.156-24.338,40.24-23.232,40.24,23.232-40.24,23.233Zm42.155-24.338,40.24-23.233,40.24,23.233-40.24,23.233Zm-1.915-1.106-40.24-23.232,40.24-23.233,40.24,23.233Zm-42.156-24.338-40.239-23.232,40.239-23.233,40.24,23.233Zm-42.155-24.338-40.24-23.233,40.24-23.232,40.24,23.232ZM3183.5,724.042l-40.24-23.233,40.24-23.232,40.24,23.232Zm-42.156-24.34-40.239-23.232,40.239-23.233,40.24,23.233Zm-42.155-24.338-40.24-23.232,40.24-23.233,40.24,23.233Zm-42.155-24.338-40.24-23.232,40.24-23.233,40.24,23.233Zm-42.156-24.338-40.24-23.233,40.24-23.232,40.24,23.232Zm-42.155-24.338-40.24-23.233,40.24-23.232,40.24,23.232Zm-42.155-24.34-40.24-23.232,40.24-23.233,40.239,23.233Zm-42.156-24.338-40.239-23.232,40.239-23.233,40.24,23.233Zm-42.155-24.338-40.24-23.233,40.24-23.232L2886.5,506.1ZM2804.1,504.995l-40.239-23.233L2804.1,458.53l40.24,23.232Zm-42.155-24.34-40.24-23.232,40.24-23.232,40.24,23.232Zm-42.155-24.338-40.24-23.232,40.24-23.233,40.239,23.233Zm-42.156-24.338L2637.4,408.747l40.239-23.233,40.24,23.233Zm-42.155-24.338-40.24-23.233,40.24-23.232,40.239,23.232Zm-42.155-24.34-40.24-23.232,40.24-23.232,40.239,23.232Zm-42.156-24.338-40.239-23.232,40.239-23.232,40.24,23.232Zm-42.155-24.338-40.24-23.232,40.24-23.233,40.239,23.233Zm-42.155-24.338-40.24-23.233,40.24-23.232,40.239,23.232ZM2424.7,285.948l-40.239-23.233,40.239-23.232,40.24,23.232Zm-42.155-24.34-40.24-23.232,40.24-23.232,40.239,23.232Zm-42.155-24.338-40.24-23.232,40.24-23.232,40.239,23.232Zm-42.156-24.338L2258,189.7l40.239-23.233,40.239,23.233Zm-1.916,1.106-40.239,23.232-40.24-23.232,40.24-23.232Zm-82.4-1.106L2173.684,189.7l40.239-23.233,40.24,23.233Zm-1.917,1.106-40.239,23.232-40.239-23.232,40.239-23.232Zm-82.394-1.106-40.24-23.232,40.24-23.233,40.239,23.233Zm-1.916,1.106-40.24,23.232-40.239-23.232,40.239-23.232Zm-82.4-1.106L2005.063,189.7l40.239-23.233L2085.54,189.7Zm-1.917,1.106-40.24,23.232-40.239-23.232,40.239-23.232Zm-82.4-1.106L1920.751,189.7l40.239-23.233,40.239,23.233Zm-1.916,1.106-40.239,23.232L1878.6,214.039l40.239-23.232Zm-82.4-1.106L1836.44,189.7l40.239-23.233,40.24,23.233Zm-1.916,1.106-40.239,23.232-40.239-23.232,40.239-23.232Zm-82.394-1.106-40.24-23.232,40.24-23.233,40.239,23.233Zm-1.916,1.106-40.24,23.232-40.239-23.232,40.239-23.232Zm-82.4-1.106L1667.818,189.7l40.239-23.233L1748.3,189.7Zm-1.916,1.106L1665.9,237.27l-40.24-23.232,40.24-23.232Zm-82.4-1.106L1583.507,189.7l40.239-23.233,40.24,23.233Zm-1.916,1.106L1581.59,237.27l-40.239-23.232,40.239-23.232Zm-82.4-1.106L1499.2,189.7l40.239-23.233,40.24,23.233Zm-1.915,1.106-40.24,23.232-40.239-23.232,40.239-23.232Zm-82.4-1.106-40.24-23.232,40.24-23.233,40.239,23.233Zm-1.916,1.106-40.24,23.232-40.239-23.232,40.239-23.232Zm-82.4-1.106L1330.574,189.7l40.239-23.232,40.239,23.233Zm-1.916,1.106-40.239,23.232-40.24-23.233,40.239-23.232Zm-82.4-1.106L1246.262,189.7l40.239-23.232L1326.74,189.7Zm-1.916,1.105-40.239,23.233-40.24-23.233,40.24-23.232Zm-82.4-1.105L1161.951,189.7l40.239-23.232,40.24,23.232Zm-1.916,1.105-40.239,23.233L1119.8,214.037l40.239-23.232Zm-42.155,24.34-40.239,23.232-40.24-23.232,40.24-23.232Zm-42.155,24.338-40.24,23.232-40.239-23.232,40.239-23.232Zm-42.156,24.338-40.239,23.233-40.239-23.233,40.239-23.232Zm-42.155,24.338-40.239,23.233-40.24-23.233,40.24-23.232ZM989.5,335.731l-40.24,23.232-40.239-23.232L949.256,312.5ZM947.34,360.069,907.1,383.3l-40.24-23.232,40.24-23.232Zm-42.155,24.338-40.24,23.232-40.239-23.232,40.239-23.232ZM863.03,408.746l-40.24,23.233-40.24-23.233,40.24-23.232Zm-42.156,24.34-40.239,23.232-40.24-23.232,40.24-23.233Zm-42.155,24.338-40.24,23.232L698.24,457.424l40.239-23.232Zm-42.155,24.338-40.24,23.232-40.24-23.232,40.24-23.232ZM694.407,506.1l-40.239,23.233L613.928,506.1l40.24-23.232Zm-42.155,24.338-40.24,23.233-40.239-23.233,40.239-23.232ZM610.1,554.778l-40.24,23.232-40.24-23.232,40.24-23.233Zm-42.156,24.338L527.7,602.348l-40.24-23.232,40.24-23.233Zm-42.155,24.338-40.24,23.233-40.24-23.233,40.24-23.232Zm-42.155,24.338-40.24,23.233-40.24-23.233,40.24-23.232Zm-42.156,24.34-40.24,23.232L361,652.132l40.24-23.233ZM399.319,676.47,359.079,699.7l-40.24-23.232,40.24-23.233Zm-42.155,24.338-40.24,23.233-40.24-23.233,40.24-23.232Zm-42.156,24.338-40.24,23.233-40.24-23.233,40.24-23.232Zm-42.155,24.34-40.24,23.232-40.24-23.232,40.24-23.233ZM230.7,773.824l-40.24,23.232-40.24-23.232,40.24-23.233Zm-42.156,24.338L148.3,821.4l-40.24-23.233L148.3,774.93ZM146.386,822.5l-40.24,23.233L65.906,822.5l40.24-23.232Zm1.915,1.106,40.24,23.232L148.3,870.072l-40.24-23.233Zm42.156,24.338,40.24,23.233-40.24,23.233-40.24-23.233Zm42.155,24.338,40.24,23.233-40.24,23.233-40.24-23.233Zm42.155,24.339,40.241,23.232-40.241,23.233-40.24-23.233Zm42.156,24.338,40.24,23.232-40.24,23.233-40.24-23.233ZM359.079,945.3l40.24,23.233-40.24,23.232-40.24-23.232Zm42.156,24.338,40.24,23.233-40.24,23.233-40.241-23.233Zm42.155,24.34,40.24,23.232-40.24,23.233-40.24-23.233Zm42.155,24.338,40.24,23.232-40.24,23.233-40.24-23.233Zm42.156,24.338,40.24,23.232-40.24,23.233-40.241-23.233Zm42.155,24.338,40.24,23.233-40.24,23.233-40.24-23.233Zm42.155,24.338,40.241,23.233L612.012,1137.8l-40.24-23.233Zm42.156,24.34,40.24,23.232-40.24,23.233L613.927,1138.9Zm42.155,24.338,40.24,23.232-40.24,23.233-40.24-23.233Zm42.155,24.338,40.241,23.233-40.241,23.233-40.24-23.233Zm42.156,24.338,40.24,23.233-40.24,23.233-40.24-23.233Zm1.915-1.105,40.24-23.233,40.24,23.233-40.24,23.233Zm82.4,1.105,40.241,23.233-40.241,23.233-40.24-23.233Zm1.915-1.105,40.241-23.233,40.24,23.233-40.24,23.233Zm82.4,1.105,40.24,23.233-40.24,23.233-40.24-23.233Zm1.915-1.105,40.241-23.233,40.24,23.233-40.242,23.233Zm82.4,1.105,40.24,23.233-40.24,23.233-40.24-23.233Zm1.915-1.105,40.24-23.233,40.241,23.233-40.241,23.233Zm82.4,1.105,40.24,23.233-40.24,23.233-40.241-23.233Zm1.915-1.105,40.24-23.233,40.24,23.233-40.24,23.233Zm82.4,1.105,40.242,23.233-40.242,23.233-40.24-23.233Zm1.916-1.105,40.24-23.233,40.24,23.233-40.24,23.233Zm82.4,1.105,40.24,23.233-40.24,23.233-40.24-23.233Zm1.915-1.105,40.241-23.233,40.24,23.233-40.241,23.233Zm82.4,1.105,40.24,23.233-40.24,23.233-40.24-23.233Zm1.915-1.105,40.24-23.233,40.241,23.233-40.241,23.232Zm82.4,1.105,40.24,23.233-40.24,23.233-40.24-23.233Zm1.915-1.105,40.24-23.233,40.241,23.233-40.241,23.232Zm82.4,1.105,40.241,23.233-40.241,23.233-40.24-23.233Zm1.916-1.105,40.24-23.233,40.24,23.233-40.24,23.232Zm82.4,1.105,40.241,23.233-40.241,23.233-40.24-23.233Zm1.915-1.105,40.242-23.233,40.24,23.233-40.24,23.232Zm82.4,1.105,40.24,23.233-40.24,23.233-40.24-23.233Zm1.915-1.105,40.24-23.233,40.241,23.233-40.241,23.232Zm82.4,1.105,40.24,23.233-40.24,23.233-40.241-23.233Zm1.915-1.105,40.24-23.233,40.24,23.233-40.24,23.232Zm82.4,1.105,40.241,23.233-40.241,23.233-40.24-23.233Zm1.916-1.105,40.24-23.233,40.24,23.233-40.24,23.232Zm82.4,1.105,40.24,23.233-40.24,23.233-40.24-23.233Zm1.915-1.105,40.24-23.233,40.241,23.233-40.241,23.232Zm82.4,1.105,40.24,23.233-40.24,23.233-40.24-23.233Zm1.915-1.105,40.24-23.233,40.241,23.233-40.241,23.232Zm82.4,1.105,40.24,23.233-40.24,23.233-40.241-23.233Zm1.915-1.105,40.24-23.233,40.24,23.233-40.24,23.232Zm82.4,1.105,40.241,23.233-40.241,23.233-40.24-23.233Zm1.915-1.105,40.242-23.233,40.24,23.233-40.24,23.232Zm82.4,1.105,40.24,23.233-40.24,23.233-40.24-23.233Zm1.915-1.105,40.241-23.233,40.24,23.233-40.24,23.232Zm82.4,1.105,40.24,23.233-40.24,23.233-40.241-23.233Zm1.915-1.105,40.24-23.233,40.24,23.233-40.24,23.232Zm82.4,1.105,40.24,23.233-40.24,23.233-40.241-23.233Zm1.915-1.105,40.24-23.233,40.24,23.233-40.24,23.232Zm82.4,1.105,40.241,23.233-40.241,23.233-40.24-23.233Zm1.915-1.105,40.241-23.233,40.24,23.233-40.24,23.232Zm82.4,1.105,40.24,23.233-40.24,23.233-40.24-23.233Zm1.915-1.105,40.24-23.233,40.241,23.233-40.241,23.232Zm82.4,1.105,40.24,23.233-40.24,23.233-40.241-23.233Zm1.915-1.105,40.24-23.233,40.24,23.233-40.24,23.232Zm42.155-24.34,40.24-23.232,40.24,23.232-40.24,23.233Zm42.156-24.338,40.24-23.233,40.24,23.233-40.24,23.233Zm42.155-24.338,40.24-23.233,40.24,23.233-40.24,23.233Zm42.155-24.338,40.241-23.233,40.24,23.233-40.24,23.232Zm42.156-24.339,40.24-23.232,40.24,23.232-40.24,23.233Zm42.155-24.338,40.24-23.232,40.24,23.232-40.24,23.233Zm42.155-24.338,40.241-23.233,40.24,23.233-40.24,23.233Zm42.156-24.338,40.24-23.233,40.24,23.233-40.24,23.233Zm42.155-24.338,40.24-23.233,40.24,23.233-40.24,23.232Zm42.156-24.34,40.24-23.232,40.24,23.232-40.24,23.233Zm42.155-24.338,40.24-23.233,40.24,23.233-40.24,23.233Zm42.155-24.338,40.24-23.233,40.24,23.233-40.24,23.232Zm42.156-24.338,40.24-23.233,40.24,23.233-40.24,23.232Zm42.155-24.34,40.24-23.232,40.24,23.232-40.24,23.233Zm42.155-24.338,40.24-23.232,40.241,23.232-40.241,23.233Zm42.156-24.338,40.24-23.233,40.24,23.233-40.24,23.233Zm-1.916-1.106-40.239-23.232,40.239-23.233,40.241,23.233Zm-42.156-24.338-40.24-23.232,40.24-23.233,40.24,23.233Zm-42.155-24.338-40.24-23.233,40.24-23.232,40.24,23.232Zm-42.156-24.338-40.239-23.233,40.239-23.232,40.24,23.232Zm-42.155-24.34-40.24-23.232,40.24-23.233,40.24,23.233ZM3183.5,675.364l-40.24-23.232L3183.5,628.9l40.24,23.233Zm-42.156-24.338-40.239-23.232,40.239-23.233,40.24,23.233Zm-42.155-24.338-40.24-23.233,40.24-23.232,40.24,23.232Zm-42.155-24.338-40.24-23.233,40.24-23.232,40.24,23.232Zm-42.156-24.34-40.24-23.232,40.24-23.233,40.24,23.233Zm-42.155-24.338-40.24-23.232,40.24-23.233,40.24,23.233Zm-42.155-24.338-40.24-23.233,40.24-23.232,40.239,23.232Zm-42.156-24.338-40.239-23.233,40.239-23.232,40.24,23.232Zm-42.155-24.34-40.24-23.232,40.24-23.232,40.239,23.232ZM2804.1,456.317l-40.239-23.232,40.239-23.233,40.24,23.233Zm-42.155-24.338-40.239-23.232,40.239-23.233,40.239,23.233Zm-42.155-24.338-40.24-23.233,40.24-23.232,40.239,23.232Zm-42.156-24.34L2637.4,360.069l40.239-23.232,40.24,23.232Zm-42.155-24.338-40.239-23.232,40.239-23.232,40.239,23.232Zm-42.155-24.338-40.24-23.232,40.24-23.233,40.239,23.233Zm-42.156-24.338-40.239-23.233,40.239-23.232,40.24,23.232Zm-42.155-24.338-40.24-23.233,40.24-23.232,40.239,23.232Zm-42.155-24.34-40.24-23.232,40.24-23.232,40.239,23.232ZM2424.7,237.27l-40.239-23.232,40.239-23.232,40.24,23.232Zm-42.155-24.338-40.24-23.232,40.24-23.233,40.239,23.233Zm-42.155-24.338-40.24-23.233,40.24-23.232,40.239,23.232Zm-42.156-24.34L2258,141.023l40.239-23.232,40.239,23.232Zm-1.916,1.106-40.239,23.233-40.24-23.233,40.24-23.232Zm-82.4-1.106-40.239-23.232,40.239-23.232,40.24,23.232Zm-1.917,1.106-40.239,23.233-40.239-23.233,40.239-23.232Zm-82.394-1.106-40.24-23.232,40.24-23.232,40.239,23.232Zm-1.916,1.106-40.24,23.233-40.239-23.233,40.239-23.232Zm-82.4-1.106-40.239-23.232,40.239-23.232,40.239,23.232Zm-1.917,1.106-40.24,23.233-40.239-23.233,40.239-23.232Zm-82.4-1.106-40.239-23.232,40.239-23.232,40.239,23.232Zm-1.916,1.106-40.239,23.233L1878.6,165.361l40.239-23.232Zm-82.4-1.106-40.239-23.232,40.239-23.232,40.24,23.232Zm-1.916,1.106-40.239,23.233-40.239-23.233,40.239-23.232Zm-82.394-1.106-40.24-23.232,40.24-23.232,40.239,23.232Zm-1.916,1.106-40.24,23.233-40.239-23.233,40.239-23.232Zm-82.4-1.106-40.239-23.232,40.239-23.232,40.239,23.232Zm-1.916,1.106L1665.9,188.594l-40.24-23.233,40.24-23.232Zm-82.4-1.106-40.239-23.232,40.239-23.232,40.24,23.232Zm-1.916,1.106-40.239,23.233-40.239-23.233,40.239-23.232Zm-82.4-1.106L1499.2,141.023l40.239-23.232,40.24,23.232Zm-1.915,1.106-40.24,23.233-40.239-23.233,40.239-23.232Zm-82.4-1.106-40.24-23.232,40.239-23.232,40.24,23.232Zm-1.916,1.106-40.24,23.233-40.239-23.233,40.239-23.232Zm-82.4-1.106-40.239-23.232,40.239-23.232,40.239,23.232Zm-1.916,1.106-40.24,23.232-40.239-23.232,40.239-23.232Zm-82.4-1.106-40.239-23.232,40.239-23.232,40.239,23.232Zm-1.916,1.106-40.239,23.232-40.24-23.232,40.24-23.232Zm-82.4-1.106-40.239-23.232,40.239-23.232,40.24,23.232Zm-1.916,1.106-40.239,23.232L1119.8,165.361l40.239-23.232ZM1158.118,189.7l-40.239,23.233-40.24-23.233,40.24-23.232Zm-42.155,24.338-40.24,23.233-40.239-23.233,40.239-23.232Zm-42.156,24.34-40.239,23.232-40.239-23.232,40.239-23.232Zm-42.155,24.338-40.239,23.232-40.24-23.232,40.24-23.232ZM989.5,287.053l-40.24,23.233-40.239-23.233,40.239-23.232ZM947.34,311.392,907.1,334.625l-40.24-23.233L907.1,288.16Zm-42.155,24.34-40.24,23.232-40.239-23.232L864.945,312.5ZM863.03,360.069,822.79,383.3l-40.24-23.232,40.24-23.232Zm-42.156,24.338-40.239,23.232-40.24-23.232,40.24-23.232Zm-42.155,24.338-40.24,23.233L698.24,408.746l40.239-23.232Zm-42.155,24.34-40.24,23.232-40.24-23.232,40.24-23.233Zm-42.156,24.338-40.239,23.232-40.24-23.232,40.24-23.232Zm-42.155,24.338-40.24,23.232-40.239-23.232,40.239-23.232ZM610.1,506.1l-40.24,23.233L529.617,506.1l40.24-23.232Zm-42.156,24.338L527.7,553.671l-40.24-23.233,40.24-23.232Zm-42.155,24.34-40.24,23.232-40.239-23.232,40.239-23.233Zm-42.155,24.338-40.24,23.232-40.24-23.232,40.24-23.233Zm-42.156,24.338-40.239,23.233L361,603.454l40.24-23.232Zm-42.155,24.338-40.24,23.233-40.24-23.232,40.24-23.233Zm-42.155,24.34-40.24,23.232-40.24-23.232,40.24-23.233ZM315.008,676.47,274.768,699.7,234.529,676.47l40.239-23.233Zm-42.155,24.338-40.24,23.233-40.24-23.233,40.24-23.232ZM230.7,725.147l-40.24,23.233-40.24-23.233,40.24-23.232Zm-42.156,24.34L148.3,772.718l-40.24-23.232,40.24-23.233Zm-42.155,24.338-40.24,23.232-40.24-23.232,40.24-23.233ZM104.23,798.163,63.991,821.4l-40.24-23.233,40.24-23.233ZM62.075,822.5l-40.24,23.233L-18.405,822.5l40.24-23.232Zm1.916,1.106,40.24,23.232-40.24,23.233L23.75,846.839Zm42.155,24.338,40.24,23.233-40.24,23.232-40.24-23.232ZM148.3,872.284l40.24,23.233L148.3,918.75l-40.24-23.233Zm42.156,24.339,40.24,23.232-40.24,23.233-40.24-23.233Zm42.155,24.338,40.24,23.232-40.24,23.233-40.24-23.233ZM274.768,945.3l40.241,23.233-40.241,23.232-40.24-23.232Zm42.156,24.338,40.24,23.233-40.24,23.233-40.24-23.233Zm42.155,24.34,40.24,23.232-40.24,23.233-40.24-23.233Zm42.156,24.338,40.24,23.232-40.24,23.233-40.241-23.233Zm42.155,24.338,40.24,23.232-40.24,23.233-40.24-23.233Zm42.155,24.338,40.24,23.233-40.24,23.233-40.24-23.233ZM527.7,1091.33l40.24,23.233L527.7,1137.8l-40.241-23.233Zm42.155,24.34L610.1,1138.9l-40.24,23.233-40.24-23.233Zm42.155,24.338,40.241,23.232-40.241,23.233-40.24-23.233Zm42.156,24.338,40.24,23.233-40.24,23.233-40.241-23.233Zm42.155,24.338,40.24,23.233-40.24,23.233-40.24-23.233Zm42.155,24.338,40.241,23.233-40.241,23.233-40.24-23.233Zm42.156,24.339,40.24,23.232-40.24,23.233-40.242-23.233Zm1.915-1.106,40.24-23.233,40.24,23.233-40.24,23.233Zm82.4,1.106,40.241,23.232-40.241,23.233-40.24-23.233Zm1.915-1.106,40.241-23.233,40.24,23.233-40.24,23.233Zm82.4,1.106,40.241,23.232-40.241,23.233-40.24-23.233Zm1.915-1.106,40.24-23.233,40.242,23.233-40.242,23.233Zm82.4,1.106,40.24,23.232-40.24,23.233-40.24-23.233Zm1.915-1.106,40.24-23.233,40.241,23.233-40.241,23.233Zm82.4,1.106,40.24,23.232-40.24,23.233-40.241-23.233Zm1.915-1.106,40.24-23.233,40.24,23.233-40.24,23.233Zm82.4,1.106,40.242,23.232-40.242,23.233-40.24-23.233Zm1.915-1.106,40.241-23.233,40.24,23.233-40.24,23.233Zm82.4,1.106,40.24,23.232-40.24,23.233-40.24-23.233Zm1.915-1.106,40.24-23.233,40.241,23.233-40.241,23.233Zm82.4,1.106,40.24,23.232-40.24,23.233-40.241-23.233Zm1.915-1.106,40.24-23.233,40.241,23.233-40.241,23.233Zm82.4,1.105,40.24,23.233-40.241,23.233-40.24-23.233Zm1.915-1.105,40.24-23.233,40.241,23.233-40.241,23.233Zm82.4,1.105,40.241,23.233-40.241,23.233-40.24-23.233Zm1.916-1.105,40.24-23.233,40.24,23.233-40.24,23.233Zm82.4,1.105,40.241,23.233-40.241,23.233-40.24-23.233Zm1.915-1.105,40.242-23.233,40.24,23.233-40.24,23.233Zm82.4,1.105,40.24,23.233-40.24,23.233-40.24-23.233Zm1.915-1.105,40.24-23.233,40.241,23.233-40.241,23.233Zm82.4,1.105,40.24,23.233-40.24,23.233-40.241-23.233Zm1.915-1.105,40.24-23.233,40.24,23.233-40.24,23.233Zm82.4,1.105,40.241,23.233-40.241,23.233-40.24-23.233Zm1.916-1.105,40.24-23.233,40.24,23.233-40.24,23.233Zm82.4,1.105,40.24,23.233-40.24,23.233-40.24-23.233Zm1.915-1.105,40.24-23.233,40.241,23.233-40.241,23.233Zm82.4,1.105,40.24,23.233-40.24,23.233-40.24-23.233Zm1.915-1.105,40.24-23.233,40.241,23.233-40.241,23.233Zm82.4,1.105,40.24,23.233-40.24,23.233-40.241-23.233Zm1.915-1.105,40.24-23.233,40.24,23.233-40.24,23.233Zm82.4,1.105,40.241,23.233-40.241,23.233-40.24-23.233Zm1.915-1.105,40.242-23.233,40.24,23.233-40.24,23.233Zm82.4,1.105,40.24,23.233-40.24,23.233-40.24-23.233Zm1.915-1.105,40.241-23.233,40.24,23.233-40.24,23.233Zm82.4,1.105,40.24,23.233-40.24,23.233-40.241-23.233Zm1.915-1.105,40.24-23.233,40.24,23.233-40.24,23.233Zm82.4,1.105,40.24,23.233-40.24,23.233-40.241-23.233Zm1.915-1.105,40.24-23.233,40.24,23.233-40.24,23.233Zm82.4,1.105,40.241,23.233-40.241,23.233-40.24-23.233Zm1.915-1.105,40.241-23.233,40.24,23.233-40.24,23.233Zm82.4,1.105,40.24,23.233-40.24,23.233-40.24-23.233Zm1.915-1.105,40.24-23.233,40.241,23.233-40.241,23.233Zm82.4,1.105,40.24,23.233-40.24,23.233-40.241-23.233Zm1.915-1.105,40.24-23.233,40.24,23.233-40.24,23.233Zm42.155-24.338,40.24-23.233,40.241,23.233-40.241,23.233Zm42.156-24.338,40.24-23.233,40.24,23.233-40.24,23.232Zm42.155-24.34,40.24-23.232,40.24,23.232-40.24,23.233Zm42.155-24.338,40.241-23.233,40.24,23.233-40.24,23.233Zm42.156-24.338,40.24-23.233,40.24,23.233-40.24,23.233Zm42.155-24.338,40.24-23.233,40.24,23.233-40.24,23.232Zm42.155-24.339,40.241-23.232,40.24,23.232-40.24,23.233Zm42.156-24.338,40.24-23.232,40.24,23.232-40.24,23.233Zm42.155-24.338,40.24-23.233,40.24,23.233-40.24,23.233Zm42.156-24.338,40.24-23.233,40.24,23.233L3183.5,1016.1Zm42.155-24.338,40.24-23.233,40.24,23.233-40.24,23.232Zm42.155-24.34,40.24-23.232,40.241,23.232-40.241,23.233Zm42.156-24.338,40.24-23.233,40.24,23.233-40.24,23.233Zm42.155-24.338,40.24-23.233,40.24,23.233-40.24,23.232Zm42.155-24.338,40.24-23.233,40.241,23.233-40.241,23.232Zm42.156-24.34,40.24-23.232,40.24,23.232-40.24,23.233Zm42.155-24.338,40.24-23.232,40.24,23.232-40.24,23.233Zm80.48-48.676-40.24,23.232-40.239-23.232,40.239-23.233Zm-42.155-24.338-40.24,23.232-40.24-23.232,40.24-23.233Zm-42.155-24.34-40.241,23.233-40.239-23.233,40.239-23.232Zm-42.157-24.338-40.24,23.233-40.24-23.233,40.24-23.232Zm-42.155-24.338-40.24,23.232-40.24-23.232,40.24-23.233Zm-42.156-24.338-40.24,23.232-40.239-23.232,40.239-23.233ZM3265.9,627.794l-40.24,23.232-40.24-23.232,40.24-23.233Zm-42.155-24.34-40.24,23.233-40.24-23.233,40.24-23.232Zm-42.156-24.338-40.24,23.233-40.239-23.233,40.239-23.232Zm-42.155-24.338-40.24,23.232-40.24-23.232,40.24-23.233Zm-42.156-24.338-40.239,23.232-40.24-23.232,40.24-23.233Zm-42.155-24.34-40.24,23.233L2974.639,506.1l40.239-23.232Zm-42.155-24.338-40.24,23.233-40.24-23.233,40.24-23.232Zm-42.156-24.338-40.239,23.232-40.24-23.232,40.24-23.232Zm-42.155-24.338-40.24,23.232-40.239-23.232,40.239-23.233ZM2886.5,408.747l-40.239,23.232-40.24-23.232,40.24-23.233Zm-42.155-24.34-40.24,23.233-40.239-23.233,40.239-23.232Zm-42.156-24.338L2761.945,383.3l-40.239-23.232,40.239-23.232Zm-42.155-24.338-40.239,23.232-40.24-23.232,40.24-23.232Zm-42.155-24.338-40.24,23.232L2637.4,311.393l40.239-23.233Zm-42.156-24.34-40.239,23.233-40.239-23.233,40.239-23.232Zm-42.155-24.338-40.239,23.233-40.24-23.233,40.24-23.232Zm-42.155-24.338-40.24,23.232-40.239-23.232,40.239-23.232Zm-42.156-24.338-40.239,23.232-40.239-23.232,40.239-23.232ZM2507.1,189.7l-40.239,23.232-40.24-23.232,40.24-23.233Zm-42.155-24.34-40.24,23.233-40.239-23.233,40.239-23.232Zm-42.156-24.338-40.239,23.232-40.239-23.232,40.239-23.232Zm-42.155-24.338-40.239,23.232-40.24-23.232,40.24-23.232Zm-82.4-47.571,40.239,23.233-40.239,23.232L2258,92.346Zm-1.916,47.571-40.239,23.232-40.24-23.232,40.24-23.232Zm-82.4-47.571,40.24,23.233-40.24,23.232-40.239-23.232Zm-1.917,47.571-40.239,23.232-40.239-23.232,40.239-23.232Zm-82.394-47.571,40.239,23.233-40.239,23.232-40.24-23.232Zm-1.916,47.571-40.24,23.232-40.239-23.232,40.239-23.232Zm-82.4-47.571,40.239,23.233L2045.3,115.578l-40.239-23.232Zm-1.917,47.571-40.24,23.232-40.239-23.232,40.239-23.232Zm-82.4-47.571,40.239,23.233-40.239,23.232-40.239-23.232Zm-1.916,47.571-40.239,23.232L1878.6,116.684l40.239-23.232Zm-82.4-47.571,40.24,23.233-40.24,23.232L1836.44,92.346Zm-1.916,47.571-40.239,23.232-40.239-23.232,40.239-23.232Zm-82.394-47.571,40.239,23.233-40.239,23.232-40.24-23.232Zm-1.916,47.571-40.24,23.232-40.239-23.232,40.239-23.232Zm-82.4-47.571L1748.3,92.346l-40.239,23.232-40.239-23.232Zm-1.916,47.571L1665.9,139.916l-40.24-23.232,40.24-23.232Zm-82.4-47.571,40.24,23.233-40.24,23.232-40.239-23.232Zm-1.916,47.571-40.239,23.232-40.239-23.232,40.239-23.232Zm-82.4-47.571,40.24,23.233-40.24,23.232L1499.2,92.345Zm-1.916,47.571-40.239,23.232-40.239-23.232,40.239-23.233Zm-82.4-47.571,40.24,23.232-40.24,23.233-40.239-23.233Zm-1.916,47.571-40.239,23.232-40.239-23.232,40.239-23.233Zm-82.394-47.571,40.239,23.232-40.239,23.233-40.239-23.233Zm-1.916,47.571-40.24,23.232-40.239-23.232,40.239-23.233Zm-82.4-47.571,40.239,23.232L1286.5,115.578l-40.239-23.233Zm-1.916,47.571-40.239,23.232-40.24-23.232,40.24-23.233Zm-82.4-47.571,40.24,23.232-40.24,23.233-40.239-23.233Zm-42.155,24.338,40.239,23.233-40.239,23.232L1119.8,116.684Zm-42.155,24.34,40.239,23.232-40.239,23.232-40.24-23.232Zm-42.156,24.338,40.24,23.232-40.24,23.232-40.239-23.232Zm-42.155,24.338,40.239,23.232-40.239,23.233L993.329,189.7Zm-42.156,24.338,40.24,23.232L991.413,237.27l-40.24-23.233Zm-42.155,24.34,40.24,23.232-40.24,23.232-40.239-23.232ZM907.1,239.483l40.239,23.232L907.1,285.947l-40.24-23.232Zm-42.156,24.338,40.24,23.232-40.24,23.233-40.239-23.233ZM822.79,288.16l40.24,23.232-40.24,23.233-40.239-23.233ZM780.635,312.5l40.239,23.233-40.239,23.232-40.24-23.232Zm-42.156,24.34,40.24,23.232L738.479,383.3,698.24,360.069Zm-42.155,24.338,40.24,23.232-40.24,23.232-40.24-23.232Zm-42.155,24.338,40.239,23.232-40.239,23.233-40.24-23.233Zm-42.156,24.338,40.24,23.233-40.24,23.232-40.239-23.232Zm-42.155,24.34,40.24,23.232-40.24,23.232-40.24-23.232ZM527.7,458.53l40.239,23.232L527.7,504.994l-40.24-23.232Zm-42.156,24.338,40.24,23.232-40.24,23.233L445.307,506.1Zm-42.155,24.338,40.24,23.232-40.24,23.233-40.24-23.233Zm-42.155,24.338,40.239,23.233L401.236,578.01,361,554.778Zm-42.156,24.338,40.24,23.233-40.24,23.232-40.24-23.232Zm-42.155,24.339,40.24,23.232-40.24,23.233-40.24-23.233Zm-42.156,24.338,40.24,23.233-40.24,23.232-40.239-23.232ZM232.613,628.9l40.24,23.233-40.24,23.232-40.24-23.232Zm-42.155,24.338L230.7,676.47,190.458,699.7l-40.24-23.232ZM148.3,677.577l40.24,23.232L148.3,724.042l-40.24-23.233Zm-42.155,24.338,40.24,23.232-40.24,23.233-40.24-23.233ZM63.991,726.253l40.239,23.233L63.991,772.718l-40.24-23.232ZM21.835,750.591l40.24,23.233-40.24,23.232-40.24-23.232ZM-20.32,774.93l40.24,23.233L-20.32,821.4l-40.24-23.233Zm-82.4,47.571,40.24-23.232L-22.235,822.5l-40.241,23.233Zm42.156,24.338,40.24-23.232,40.24,23.232-40.24,23.233Zm42.155,24.34,40.24-23.233,40.24,23.233-40.24,23.232ZM23.75,895.517l40.241-23.233,40.24,23.233L63.991,918.75Zm42.156,24.338,40.24-23.232,40.24,23.232-40.24,23.233Zm42.155,24.338,40.24-23.232,40.24,23.232L148.3,967.427Zm42.156,24.34,40.24-23.233,40.24,23.233-40.24,23.232Zm42.155,24.338,40.24-23.233,40.24,23.233-40.24,23.233Zm42.155,24.338,40.24-23.232,40.241,23.232-40.241,23.233Zm42.156,24.338,40.24-23.232,40.24,23.232-40.24,23.233Zm42.155,24.338,40.24-23.232,40.24,23.232-40.24,23.233Zm42.155,24.339,40.241-23.233,40.24,23.233-40.24,23.233Zm42.156,24.338,40.24-23.233,40.24,23.233-40.24,23.233Zm42.155,24.338,40.24-23.232,40.241,23.232-40.241,23.233Zm42.155,24.338,40.241-23.232,40.24,23.232L527.7,1186.473Zm42.156,24.34,40.24-23.233,40.24,23.233-40.24,23.233Zm42.155,24.338,40.24-23.233,40.241,23.233-40.241,23.233Zm42.155,24.338,40.241-23.233,40.24,23.233-40.24,23.233Zm42.156,24.338,40.24-23.232,40.24,23.232-40.24,23.233Zm42.155,24.34,40.24-23.233,40.241,23.233-40.241,23.232Zm82.4,47.571-40.242-23.233,40.242-23.233,40.24,23.233Zm1.915-47.571,40.24-23.233,40.24,23.233-40.24,23.232Zm82.4,47.571-40.24-23.233,40.24-23.233,40.241,23.233Zm1.915-47.571L907.1,1261.7l40.24,23.233-40.24,23.232Zm82.4,47.571-40.24-23.233,40.24-23.233,40.241,23.233Zm1.915-47.571,40.24-23.233,40.242,23.233-40.242,23.232Zm82.4,47.571-40.241-23.233,40.241-23.233,40.24,23.233Zm1.915-47.571,40.24-23.233,40.241,23.233-40.241,23.232Zm82.4,47.571-40.241-23.233,40.241-23.233,40.24,23.233Zm1.915-47.571,40.24-23.233,40.24,23.233-40.24,23.232Zm82.4,47.571-40.24-23.233,40.24-23.233,40.242,23.233Zm1.915-47.571,40.241-23.233,40.24,23.233-40.24,23.232Zm82.4,47.571-40.24-23.233,40.24-23.233,40.24,23.233Zm1.915-47.571,40.24-23.233,40.241,23.233-40.241,23.232Zm82.4,47.571-40.241-23.233,40.241-23.233,40.24,23.233Zm1.915-47.571,40.24-23.233,40.241,23.233-40.241,23.232Zm82.4,47.571-40.24-23.233,40.24-23.233,40.241,23.233Zm1.916-47.571,40.24-23.234,40.241,23.233-40.241,23.233Zm82.4,47.571-40.24-23.233,40.24-23.233,40.241,23.233Zm1.916-47.573,40.24-23.233,40.24,23.233-40.24,23.233Zm82.4,47.573-40.24-23.233,40.24-23.233,40.241,23.233Zm1.915-47.573L1665.9,1261.7l40.24,23.233-40.24,23.233Zm82.4,47.573-40.24-23.233,40.24-23.233,40.24,23.233Zm1.915-47.573,40.24-23.233,40.241,23.233-40.241,23.233Zm82.4,47.573-40.241-23.233,40.241-23.233,40.24,23.233Zm1.915-47.573,40.24-23.233,40.24,23.233-40.24,23.233Zm82.4,47.573-40.24-23.233,40.24-23.233,40.241,23.233Zm1.915-47.573,40.241-23.233,40.24,23.233-40.24,23.233Zm82.4,47.573-40.24-23.233,40.24-23.233,40.241,23.233Zm1.915-47.573,40.24-23.233,40.241,23.233-40.241,23.233Zm82.4,47.573-40.24-23.233,40.24-23.233,40.24,23.233Zm1.915-47.573,40.24-23.233,40.241,23.233-40.241,23.233Zm82.4,47.573-40.241-23.233,40.241-23.233,40.24,23.233Zm1.915-47.573,40.24-23.233,40.24,23.233-40.24,23.233Zm82.4,47.573-40.24-23.233,40.24-23.233,40.241,23.233Zm1.915-47.573,40.242-23.233,40.24,23.233-40.24,23.233Zm82.4,47.573-40.24-23.233,40.24-23.233,40.24,23.233Zm1.915-47.573,40.241-23.233,40.24,23.233-40.24,23.233Zm82.4,47.573-40.241-23.233,40.241-23.233,40.24,23.233Zm1.915-47.573,40.24-23.233,40.241,23.233-40.241,23.233Zm82.4,47.573-40.241-23.233,40.241-23.233,40.24,23.233Zm1.915-47.573,40.24-23.233,40.24,23.233-40.24,23.233Zm82.4,47.573-40.24-23.233,40.24-23.233,40.241,23.233Zm1.915-47.573,40.241-23.233,40.24,23.233-40.24,23.233Zm82.4,47.573-40.24-23.233,40.24-23.233,40.241,23.233Zm1.915-47.573,40.24-23.233,40.241,23.233-40.241,23.233Zm82.4,47.573-40.241-23.233,40.241-23.233,40.24,23.233Zm42.155-24.339-40.24-23.233,40.24-23.233,40.241,23.233Zm42.155-24.338-40.24-23.233,40.24-23.233,40.241,23.233Zm42.156-24.338-40.24-23.233,40.24-23.233,40.24,23.233Zm42.155-24.338-40.24-23.233,40.24-23.233,40.24,23.233Zm42.156-24.34-40.241-23.232,40.241-23.233,40.24,23.233Zm42.155-24.338-40.24-23.233,40.24-23.232,40.24,23.232Zm42.155-24.338-40.24-23.233,40.24-23.233,40.24,23.233Zm42.156-24.338-40.241-23.233,40.241-23.233,40.24,23.233Zm42.155-24.34-40.24-23.232,40.24-23.233,40.24,23.233Zm42.155-24.338-40.24-23.233,40.24-23.232,40.24,23.232Zm42.156-24.338-40.24-23.233,40.24-23.232,40.24,23.232Zm42.155-24.338-40.24-23.233,40.24-23.233,40.24,23.233Zm42.155-24.338-40.24-23.233,40.24-23.233,40.241,23.233Zm42.156-24.339-40.24-23.232,40.24-23.233,40.24,23.233Zm42.155-24.338-40.24-23.233,40.24-23.232,40.24,23.232Zm42.156-24.338-40.24-23.233,40.24-23.233,40.241,23.233Zm42.156-24.34-40.24-23.232,40.24-23.233,40.24,23.233Zm42.155-24.338-40.24-23.232,40.24-23.233,40.24,23.233Zm42.156-24.338L3480.5,846.839l40.241-23.232,40.24,23.232Zm42.155-24.338L3522.66,822.5l40.24-23.232,40.24,23.232Z" transform="translate(-1060.092 -215.225)" fill="#c30d23" opacity="0.061"/>
  </g>
</svg>
