<svg id="ATKK_logo" data-name="ATKK logo" xmlns="http://www.w3.org/2000/svg" width="266.177" height="26" viewBox="0 0 266.177 26">
  <path id="Path_21535" data-name="Path 21535" d="M80.2,16.829l-2.554.011-12.6,14.72L60.935,19.271l1.795-2.457H60.14L56.754,6.488l32.217,0Z" transform="translate(-19.853 -6.213)"/>
  <path id="Path_21536" data-name="Path 21536" d="M114.458,7.912c-3.581.01-9.063,0-9.063,0,2.059-1.418,6.565-1.514,9.064,0" transform="translate(-35.753 -6.312)" fill="#da1125"/>
  <path id="Path_21537" data-name="Path 21537" d="M46.654,31.531H34.5l-1.725-5.653L24.7,31.5H3.4L38.434,6.526Z" transform="translate(-3.402 -6.224)"/>
  <path id="Path_21538" data-name="Path 21538" d="M114.643,9.611a6.014,6.014,0,0,1,1.244,1.11H102.1a3.942,3.942,0,0,1,1.129-1.114l11.412,0" transform="translate(-34.725 -7.175)" fill="#da1125"/>
  <path id="Path_21539" data-name="Path 21539" d="M116.555,13.514H100.123a5.58,5.58,0,0,1,.7-1.089h15.066a3.591,3.591,0,0,1,.663,1.089" transform="translate(-34.106 -8.1)" fill="#da1125"/>
  <path id="Path_21540" data-name="Path 21540" d="M116.571,15.151a4.522,4.522,0,0,1,.418,1.121l-17.831-.011a3.385,3.385,0,0,1,.323-1.11h17.09" transform="translate(-33.805 -8.965)" fill="#da1125"/>
  <path id="Path_21541" data-name="Path 21541" d="M95.239,28.363a10.539,10.539,0,0,0,9.493.629c-1.832,2.137-5.268,6.361-5.268,6.361H75.221l14.984-17.5a10.568,10.568,0,0,0,5.033,10.51" transform="translate(-26.237 -10.042)"/>
  <path id="Path_21542" data-name="Path 21542" d="M117,17.974a3.968,3.968,0,0,1,.093,1.147H98.7a3.576,3.576,0,0,1,.129-1.176L117,17.974" transform="translate(-33.661 -9.851)" fill="#da1125"/>
  <path id="Path_21543" data-name="Path 21543" d="M117.1,20.779a9.543,9.543,0,0,1-.13,1.1H98.834a7.023,7.023,0,0,1-.129-1.111l18.394.011" transform="translate(-33.663 -10.747)" fill="#da1125"/>
  <path id="Path_21544" data-name="Path 21544" d="M116.917,23.44a4.51,4.51,0,0,1-.4,1.156s-16.286,0-16.922-.007a3.814,3.814,0,0,1-.417-1.16l17.743.011" transform="translate(-33.81 -11.591)" fill="#da1125"/>
  <path id="Path_21545" data-name="Path 21545" d="M116.46,26.27a5.112,5.112,0,0,1-.748,1.073l-14.759-.024a4.453,4.453,0,0,1-.682-1.073l16.189.024" transform="translate(-34.152 -12.485)" fill="#da1125"/>
  <path id="Path_21546" data-name="Path 21546" d="M115.728,28.89a7.574,7.574,0,0,1-1.258,1.141l-11.047,0a5.629,5.629,0,0,1-1.24-1.124l13.545-.013" transform="translate(-34.75 -13.324)" fill="#da1125"/>
  <path id="Path_21547" data-name="Path 21547" d="M114.468,31.709c-2.294,1.425-7,1.334-9.075,0l9.075,0" transform="translate(-35.753 -14.217)" fill="#da1125"/>
  <path id="Path_21548" data-name="Path 21548" d="M284.789,6.364V9.49c-.165.047-.053.043-.107,0a1.4,1.4,0,0,0-1.261-.793h-3.856c-.23-.027-.163.26-.163.26V30c.107,1.148,1.15,1.273.986,1.481l-4.629,0c-.044-.265.746-.14.9-.983l-.019-21.423c.037-.3-.116-.449-.381-.374l-3.947.01a1.425,1.425,0,0,0-1.26.8.063.063,0,0,1-.077.008V6.376l13.809-.012" transform="translate(-88.32 -6.174)"/>
  <path id="Path_21549" data-name="Path 21549" d="M175.068,6.76l0,23.58c.114.883,1.053.774.987,1.133H171.5c-.066-.3.645-.015.911-1.133l0-22.627a1.374,1.374,0,0,0-1.024-1.273l.114-.074h3.291c.293,0,.275.4.275.4" transform="translate(-56.661 -6.174)"/>
  <path id="Path_21550" data-name="Path 21550" d="M184.552,6.655l0,23.866c.122.8,1.118.609,1.051.952h-4.591c-.038-.2.815-.156.884-.952l0-22.912c-.144-1.105-1.163-1.011-.911-1.244h3.242a.318.318,0,0,1,.325.29" transform="translate(-59.691 -6.175)"/>
  <path id="Path_21551" data-name="Path 21551" d="M143.856,21.9l3.971-9.906,4.584,9.906h-8.555m15.852,8.936c-4.174-8.39-7.616-16.465-11.9-24.743L137.248,30.578c-.284.8-1.044.561-.873.871h4.487c.037-.262-.768-.543-.531-1.151l2.407-5.7,10.99.022,2.821,5.909c.238.516-.7.656-.654.871h4.154c.341-.075-.228-.374-.342-.562" transform="translate(-45.643 -6.09)"/>
  <path id="Path_21552" data-name="Path 21552" d="M359.358,16.877c.523.1.688-.522.8-.266-.009.835-.011,3.384-.011,3.384s.022.212-.143.023a4.141,4.141,0,0,0-4.694-1.007,2.375,2.375,0,0,0-1.21,1.921c.046,3.116,4.765,2.466,6.6,5.089a5.918,5.918,0,0,1,.8,5.3,5.146,5.146,0,0,1-2.8,3.055,9.3,9.3,0,0,1-6.623-.042c-.262-.095-.443.086-.782.468-.132.088-.117-.021-.117-.021V30.654c.006-.071.057-.082.108-.024,1.739,1.992,3.351,2.15,5.439,1.865a3.247,3.247,0,0,0,2.307-1.961,3.125,3.125,0,0,0-1.233-3.667c-1.731-1.139-5.548-1.407-6.165-5.248a4.816,4.816,0,0,1,2.466-4.553,7.021,7.021,0,0,1,5.263-.19" transform="translate(-113.967 -9.615)"/>
  <path id="Path_21553" data-name="Path 21553" d="M192.859,18.557l0,15.685c.019.947,1.062.853.91,1.2l-4.667.006c-.019-.266,1.186-.515,1.072-1.349l.006-14.948c-.078-.821-.618-.766-.569-.969h2.982c.167.062.27.376.27.376" transform="translate(-62.276 -10.144)"/>
  <path id="Path_21554" data-name="Path 21554" d="M203.291,20.633a7.318,7.318,0,0,1,7.636-2.229,8.859,8.859,0,0,1,2.608,1.376l-11.2,9a8.031,8.031,0,0,1,.955-8.142m2.277,11.713a5.907,5.907,0,0,1-1.885-1.5c4.591-3.68,9.567-7.65,14.119-11.254l-.048-.089a.806.806,0,0,1-.568-.124c-1.742-1.266-3.415-2.774-6.118-3.3a9.235,9.235,0,0,0-9.342,2.655c-2.617,2.732-3.163,7.07-1.816,10.825a8.866,8.866,0,0,0,6.643,5.621,10.069,10.069,0,0,0,7.773-1.744l0-2.645c-.039.032-.079-.072-.12-.041-2.42,1.876-5.8,2.9-8.644,1.594" transform="translate(-65.573 -9.4)"/>
  <path id="Path_21555" data-name="Path 21555" d="M240.791,28.228c-2.313,1.349-5.956,1.656-8.157.045a6.949,6.949,0,0,1-2.542-7.38,6.72,6.72,0,0,1,4.819-4.683,8.077,8.077,0,0,1,7.941,2.6l.01,7.654a5.208,5.208,0,0,1-2.072,1.76m5.219-.3a1.3,1.3,0,0,1-.481-1l0-20.267-.216-.3h-3.35l-.113.112c.3.3.9.413.975.9l0,7.913-.077.29-1.348-.824a10.38,10.38,0,0,0-10.472.562,9.24,9.24,0,0,0-3.511,9.553c.683,3.184,3.664,6.406,7.04,6.855,3.72.986,6.915-.571,9.368-2.466.717-.432,1.619-1.263,2.182-1.236-.026-.031.084-.029.006-.092" transform="translate(-74.461 -6.172)"/>
  <path id="Path_21556" data-name="Path 21556" d="M191.656,12.667a1.543,1.543,0,1,0-1.543-1.542,1.543,1.543,0,0,0,1.543,1.542" transform="translate(-62.588 -7.167)"/>
  <path id="Path_21557" data-name="Path 21557" d="M290.469,20.7a7.317,7.317,0,0,1,7.635-2.23,8.9,8.9,0,0,1,2.609,1.375l-11.2,9a8.029,8.029,0,0,1,.955-8.142m2.277,11.713a5.91,5.91,0,0,1-1.885-1.5c4.591-3.679,9.568-7.649,14.12-11.253l-.047-.089a.813.813,0,0,1-.569-.125c-1.742-1.266-3.415-2.774-6.118-3.3A9.235,9.235,0,0,0,288.9,18.8c-2.617,2.731-3.164,7.069-1.817,10.824a8.868,8.868,0,0,0,6.645,5.622A10.07,10.07,0,0,0,301.5,33.5l0-2.646c-.039.033-.078-.071-.119-.04-2.421,1.875-5.8,2.9-8.644,1.594" transform="translate(-93.255 -9.42)"/>
  <path id="Path_21558" data-name="Path 21558" d="M317.762,6.711l0,23.867c.122.8,1.117.608,1.051.952h-4.59c-.038-.2.815-.157.883-.952l0-22.912c-.144-1.105-1.163-1.011-.91-1.243h3.241a.316.316,0,0,1,.325.287" transform="translate(-101.925 -6.193)"/>
  <path id="Path_21559" data-name="Path 21559" d="M326.479,20.662a7.317,7.317,0,0,1,7.635-2.229,8.853,8.853,0,0,1,2.609,1.376l-11.2,9a8.026,8.026,0,0,1,.954-8.142m2.276,11.713a5.909,5.909,0,0,1-1.883-1.5c4.59-3.68,9.566-7.648,14.119-11.253l-.047-.087a.811.811,0,0,1-.568-.126c-1.742-1.267-3.415-2.774-6.118-3.3a9.238,9.238,0,0,0-9.342,2.656C322.3,21.5,321.751,25.834,323.1,29.59a8.866,8.866,0,0,0,6.644,5.621,10.066,10.066,0,0,0,7.772-1.745l0-2.645c-.039.032-.079-.071-.119-.041-2.422,1.876-5.8,2.9-8.646,1.595" transform="translate(-105.091 -9.409)"/>
  <path id="Path_21560" data-name="Path 21560" d="M372,18.647l0,15.684c.019.948,1.062.852.911,1.2l-4.667.006c-.019-.265,1.186-.515,1.071-1.35l.006-14.949c-.076-.819-.618-.764-.568-.968h2.973c.167.062.27.376.27.376" transform="translate(-119.231 -10.171)"/>
  <path id="Path_21561" data-name="Path 21561" d="M370.8,12.757a1.542,1.542,0,1,0-1.542-1.543,1.542,1.542,0,0,0,1.542,1.543" transform="translate(-119.544 -7.194)"/>
  <path id="Path_21562" data-name="Path 21562" d="M385.891,16.9c.522.095.688-.522.8-.266-.01.836-.013,3.384-.013,3.384s.023.212-.142.023a4.142,4.142,0,0,0-4.7-1.007,2.379,2.379,0,0,0-1.209,1.921c.048,3.115,4.766,2.465,6.6,5.088a5.917,5.917,0,0,1,.8,5.305,5.149,5.149,0,0,1-2.8,3.054,9.31,9.31,0,0,1-6.623-.042c-.261-.095-.443.085-.781.468-.132.086-.116-.023-.116-.023v-4.13c0-.071.056-.082.107-.024,1.738,1.992,3.351,2.15,5.438,1.865a3.247,3.247,0,0,0,2.308-1.96,3.123,3.123,0,0,0-1.234-3.667c-1.731-1.138-5.549-1.407-6.165-5.248a4.817,4.817,0,0,1,2.466-4.553,7.031,7.031,0,0,1,5.264-.19" transform="translate(-122.148 -9.624)"/>
  <path id="Path_21563" data-name="Path 21563" d="M80.2,16.829l-2.554.011-12.6,14.72L60.935,19.271l1.795-2.457H60.14L56.754,6.488l32.217,0Z" transform="translate(-19.853 -6.213)"/>
  <path id="Path_21564" data-name="Path 21564" d="M114.458,7.912c-3.581.01-9.063,0-9.063,0,2.059-1.418,6.565-1.514,9.064,0" transform="translate(-35.753 -6.312)" fill="#da1125"/>
  <path id="Path_21565" data-name="Path 21565" d="M46.654,31.531H34.5l-1.725-5.653L24.7,31.5H3.4L38.434,6.526Z" transform="translate(-3.402 -6.224)"/>
  <path id="Path_21566" data-name="Path 21566" d="M114.643,9.611a6.014,6.014,0,0,1,1.244,1.11H102.1a3.942,3.942,0,0,1,1.129-1.114l11.412,0" transform="translate(-34.725 -7.175)" fill="#da1125"/>
  <path id="Path_21567" data-name="Path 21567" d="M116.555,13.514H100.123a5.58,5.58,0,0,1,.7-1.089h15.066a3.591,3.591,0,0,1,.663,1.089" transform="translate(-34.106 -8.1)" fill="#da1125"/>
  <path id="Path_21568" data-name="Path 21568" d="M116.571,15.151a4.522,4.522,0,0,1,.418,1.121l-17.831-.011a3.385,3.385,0,0,1,.323-1.11h17.09" transform="translate(-33.805 -8.965)" fill="#da1125"/>
  <path id="Path_21569" data-name="Path 21569" d="M95.239,28.363a10.539,10.539,0,0,0,9.493.629c-1.832,2.137-5.268,6.361-5.268,6.361H75.221l14.984-17.5a10.568,10.568,0,0,0,5.033,10.51" transform="translate(-26.237 -10.042)"/>
  <path id="Path_21570" data-name="Path 21570" d="M117,17.974a3.968,3.968,0,0,1,.093,1.147H98.7a3.576,3.576,0,0,1,.129-1.176L117,17.974" transform="translate(-33.661 -9.851)" fill="#da1125"/>
  <path id="Path_21571" data-name="Path 21571" d="M117.1,20.779a9.543,9.543,0,0,1-.13,1.1H98.834a7.023,7.023,0,0,1-.129-1.111l18.394.011" transform="translate(-33.663 -10.747)" fill="#da1125"/>
  <path id="Path_21572" data-name="Path 21572" d="M116.917,23.44a4.51,4.51,0,0,1-.4,1.156s-16.286,0-16.922-.007a3.814,3.814,0,0,1-.417-1.16l17.743.011" transform="translate(-33.81 -11.591)" fill="#da1125"/>
  <path id="Path_21573" data-name="Path 21573" d="M116.46,26.27a5.112,5.112,0,0,1-.748,1.073l-14.759-.024a4.453,4.453,0,0,1-.682-1.073l16.189.024" transform="translate(-34.152 -12.485)" fill="#da1125"/>
  <path id="Path_21574" data-name="Path 21574" d="M115.728,28.89a7.574,7.574,0,0,1-1.258,1.141l-11.047,0a5.629,5.629,0,0,1-1.24-1.124l13.545-.013" transform="translate(-34.75 -13.324)" fill="#da1125"/>
  <path id="Path_21575" data-name="Path 21575" d="M114.468,31.709c-2.294,1.425-7,1.334-9.075,0l9.075,0" transform="translate(-35.753 -14.217)" fill="#da1125"/>
  <path id="Path_21576" data-name="Path 21576" d="M284.789,6.364V9.49c-.165.047-.053.043-.107,0a1.4,1.4,0,0,0-1.261-.793h-3.856c-.23-.027-.163.26-.163.26V30c.107,1.148,1.15,1.273.986,1.481l-4.629,0c-.044-.265.746-.14.9-.983l-.019-21.423c.037-.3-.116-.449-.381-.374l-3.947.01a1.425,1.425,0,0,0-1.26.8.063.063,0,0,1-.077.008V6.376l13.809-.012" transform="translate(-88.32 -6.174)"/>
  <path id="Path_21577" data-name="Path 21577" d="M175.068,6.76l0,23.58c.114.883,1.053.774.987,1.133H171.5c-.066-.3.645-.015.911-1.133l0-22.627a1.374,1.374,0,0,0-1.024-1.273l.114-.074h3.291c.293,0,.275.4.275.4" transform="translate(-56.661 -6.174)"/>
  <path id="Path_21578" data-name="Path 21578" d="M184.552,6.655l0,23.866c.122.8,1.118.609,1.051.952h-4.591c-.038-.2.815-.156.884-.952l0-22.912c-.144-1.105-1.163-1.011-.911-1.244h3.242a.318.318,0,0,1,.325.29" transform="translate(-59.691 -6.175)"/>
  <path id="Path_21579" data-name="Path 21579" d="M143.856,21.9l3.971-9.906,4.584,9.906h-8.555m15.852,8.936c-4.174-8.39-7.616-16.465-11.9-24.743L137.248,30.578c-.284.8-1.044.561-.873.871h4.487c.037-.262-.768-.543-.531-1.151l2.407-5.7,10.99.022,2.821,5.909c.238.516-.7.656-.654.871h4.154c.341-.075-.228-.374-.342-.562" transform="translate(-45.643 -6.09)"/>
  <path id="Path_21580" data-name="Path 21580" d="M359.358,16.877c.523.1.688-.522.8-.266-.009.835-.011,3.384-.011,3.384s.022.212-.143.023a4.141,4.141,0,0,0-4.694-1.007,2.375,2.375,0,0,0-1.21,1.921c.046,3.116,4.765,2.466,6.6,5.089a5.918,5.918,0,0,1,.8,5.3,5.146,5.146,0,0,1-2.8,3.055,9.3,9.3,0,0,1-6.623-.042c-.262-.095-.443.086-.782.468-.132.088-.117-.021-.117-.021V30.654c.006-.071.057-.082.108-.024,1.739,1.992,3.351,2.15,5.439,1.865a3.247,3.247,0,0,0,2.307-1.961,3.125,3.125,0,0,0-1.233-3.667c-1.731-1.139-5.548-1.407-6.165-5.248a4.816,4.816,0,0,1,2.466-4.553,7.021,7.021,0,0,1,5.263-.19" transform="translate(-113.967 -9.615)"/>
  <path id="Path_21581" data-name="Path 21581" d="M192.859,18.557l0,15.685c.019.947,1.062.853.91,1.2l-4.667.006c-.019-.266,1.186-.515,1.072-1.349l.006-14.948c-.078-.821-.618-.766-.569-.969h2.982c.167.062.27.376.27.376" transform="translate(-62.276 -10.144)"/>
  <path id="Path_21582" data-name="Path 21582" d="M203.291,20.633a7.318,7.318,0,0,1,7.636-2.229,8.859,8.859,0,0,1,2.608,1.376l-11.2,9a8.031,8.031,0,0,1,.955-8.142m2.277,11.713a5.907,5.907,0,0,1-1.885-1.5c4.591-3.68,9.567-7.65,14.119-11.254l-.048-.089a.806.806,0,0,1-.568-.124c-1.742-1.266-3.415-2.774-6.118-3.3a9.235,9.235,0,0,0-9.342,2.655c-2.617,2.732-3.163,7.07-1.816,10.825a8.866,8.866,0,0,0,6.643,5.621,10.069,10.069,0,0,0,7.773-1.744l0-2.645c-.039.032-.079-.072-.12-.041-2.42,1.876-5.8,2.9-8.644,1.594" transform="translate(-65.573 -9.4)"/>
  <path id="Path_21583" data-name="Path 21583" d="M240.791,28.228c-2.313,1.349-5.956,1.656-8.157.045a6.949,6.949,0,0,1-2.542-7.38,6.72,6.72,0,0,1,4.819-4.683,8.077,8.077,0,0,1,7.941,2.6l.01,7.654a5.208,5.208,0,0,1-2.072,1.76m5.219-.3a1.3,1.3,0,0,1-.481-1l0-20.267-.216-.3h-3.35l-.113.112c.3.3.9.413.975.9l0,7.913-.077.29-1.348-.824a10.38,10.38,0,0,0-10.472.562,9.24,9.24,0,0,0-3.511,9.553c.683,3.184,3.664,6.406,7.04,6.855,3.72.986,6.915-.571,9.368-2.466.717-.432,1.619-1.263,2.182-1.236-.026-.031.084-.029.006-.092" transform="translate(-74.461 -6.172)"/>
  <path id="Path_21584" data-name="Path 21584" d="M191.656,12.667a1.543,1.543,0,1,0-1.543-1.542,1.543,1.543,0,0,0,1.543,1.542" transform="translate(-62.588 -7.167)"/>
  <path id="Path_21585" data-name="Path 21585" d="M290.469,20.7a7.317,7.317,0,0,1,7.635-2.23,8.9,8.9,0,0,1,2.609,1.375l-11.2,9a8.029,8.029,0,0,1,.955-8.142m2.277,11.713a5.91,5.91,0,0,1-1.885-1.5c4.591-3.679,9.568-7.649,14.12-11.253l-.047-.089a.813.813,0,0,1-.569-.125c-1.742-1.266-3.415-2.774-6.118-3.3A9.235,9.235,0,0,0,288.9,18.8c-2.617,2.731-3.164,7.069-1.817,10.824a8.868,8.868,0,0,0,6.645,5.622A10.07,10.07,0,0,0,301.5,33.5l0-2.646c-.039.033-.078-.071-.119-.04-2.421,1.875-5.8,2.9-8.644,1.594" transform="translate(-93.255 -9.42)"/>
  <path id="Path_21586" data-name="Path 21586" d="M317.762,6.711l0,23.867c.122.8,1.117.608,1.051.952h-4.59c-.038-.2.815-.157.883-.952l0-22.912c-.144-1.105-1.163-1.011-.91-1.243h3.241a.316.316,0,0,1,.325.287" transform="translate(-101.925 -6.193)"/>
  <path id="Path_21587" data-name="Path 21587" d="M326.479,20.662a7.317,7.317,0,0,1,7.635-2.229,8.853,8.853,0,0,1,2.609,1.376l-11.2,9a8.026,8.026,0,0,1,.954-8.142m2.276,11.713a5.909,5.909,0,0,1-1.883-1.5c4.59-3.68,9.566-7.648,14.119-11.253l-.047-.087a.811.811,0,0,1-.568-.126c-1.742-1.267-3.415-2.774-6.118-3.3a9.238,9.238,0,0,0-9.342,2.656C322.3,21.5,321.751,25.834,323.1,29.59a8.866,8.866,0,0,0,6.644,5.621,10.066,10.066,0,0,0,7.772-1.745l0-2.645c-.039.032-.079-.071-.119-.041-2.422,1.876-5.8,2.9-8.646,1.595" transform="translate(-105.091 -9.409)"/>
  <path id="Path_21588" data-name="Path 21588" d="M372,18.647l0,15.684c.019.948,1.062.852.911,1.2l-4.667.006c-.019-.265,1.186-.515,1.071-1.35l.006-14.949c-.076-.819-.618-.764-.568-.968h2.973c.167.062.27.376.27.376" transform="translate(-119.231 -10.171)"/>
  <path id="Path_21589" data-name="Path 21589" d="M370.8,12.757a1.542,1.542,0,1,0-1.542-1.543,1.542,1.542,0,0,0,1.542,1.543" transform="translate(-119.544 -7.194)"/>
  <path id="Path_21590" data-name="Path 21590" d="M385.891,16.9c.522.095.688-.522.8-.266-.01.836-.013,3.384-.013,3.384s.023.212-.142.023a4.142,4.142,0,0,0-4.7-1.007,2.379,2.379,0,0,0-1.209,1.921c.048,3.115,4.766,2.465,6.6,5.088a5.917,5.917,0,0,1,.8,5.305,5.149,5.149,0,0,1-2.8,3.054,9.31,9.31,0,0,1-6.623-.042c-.261-.095-.443.085-.781.468-.132.086-.116-.023-.116-.023v-4.13c0-.071.056-.082.107-.024,1.738,1.992,3.351,2.15,5.438,1.865a3.247,3.247,0,0,0,2.308-1.96,3.123,3.123,0,0,0-1.234-3.667c-1.731-1.138-5.549-1.407-6.165-5.248a4.817,4.817,0,0,1,2.466-4.553,7.031,7.031,0,0,1,5.264-.19" transform="translate(-122.148 -9.624)"/>
</svg>
