<svg id="header_メニューボタン_spA" xmlns="http://www.w3.org/2000/svg" xmlns:xlink="http://www.w3.org/1999/xlink" width="33" height="34" viewBox="0 0 33 34">
  <defs>
    <clipPath id="clip-path">
      <rect width="33" height="34" fill="none"/>
    </clipPath>
  </defs>
  <g id="Repeat_Grid_222" data-name="Repeat Grid 222" clip-path="url(#clip-path)">
    <g transform="translate(-1455 -36)">
      <rect id="Rectangle_8701" data-name="Rectangle 8701" width="8" height="8" rx="4" transform="translate(1455 36)" fill="#9f1800"/>
    </g>
    <g transform="translate(-1443 -36)">
      <rect id="Rectangle_8701-2" data-name="Rectangle 8701" width="8" height="8" rx="4" transform="translate(1455 36)" fill="#9f1800"/>
    </g>
    <g transform="translate(-1431 -36)">
      <rect id="Rectangle_8701-3" data-name="Rectangle 8701" width="8" height="8" rx="4" transform="translate(1455 36)" fill="#9f1800"/>
    </g>
    <g transform="translate(-1455 -24)">
      <rect id="Rectangle_8701-4" data-name="Rectangle 8701" width="8" height="8" rx="4" transform="translate(1455 36)" fill="#9f1800"/>
    </g>
    <g transform="translate(-1443 -24)">
      <rect id="Rectangle_8701-5" data-name="Rectangle 8701" width="8" height="8" rx="4" transform="translate(1455 36)" fill="#9f1800"/>
    </g>
    <g transform="translate(-1431 -24)">
      <rect id="Rectangle_8701-6" data-name="Rectangle 8701" width="8" height="8" rx="4" transform="translate(1455 36)" fill="#9f1800"/>
    </g>
    <g transform="translate(-1455 -12)">
      <rect id="Rectangle_8701-7" data-name="Rectangle 8701" width="8" height="8" rx="4" transform="translate(1455 36)" fill="#9f1800"/>
    </g>
    <g transform="translate(-1443 -12)">
      <rect id="Rectangle_8701-8" data-name="Rectangle 8701" width="8" height="8" rx="4" transform="translate(1455 36)" fill="#9f1800"/>
    </g>
    <g transform="translate(-1431 -12)">
      <rect id="Rectangle_8701-9" data-name="Rectangle 8701" width="8" height="8" rx="4" transform="translate(1455 36)" fill="#9f1800"/>
    </g>
  </g>
</svg>
